<svg width="11" height="20" viewBox="0 0 11 20" fill="none" xmlns="http://www.w3.org/2000/svg">
<path fill-rule="evenodd" clip-rule="evenodd" d="M10.5904 0H8.19153C5.49709 0 3.75597 1.93221 3.75597 4.92221V7.19109H1.34376C1.23981 7.19543 1.1418 7.24077 1.07121 7.3172C1.00061 7.39363 0.963164 7.49491 0.967075 7.59888V10.8878C0.963164 10.9918 1.00061 11.093 1.07121 11.1695C1.1418 11.2459 1.23981 11.2912 1.34376 11.2955H3.75597V19.5922C3.75206 19.6962 3.78951 19.7975 3.86011 19.8739C3.9307 19.9503 4.02868 19.9957 4.13263 20H7.2793C7.33082 19.998 7.38143 19.9858 7.42826 19.9643C7.47508 19.9427 7.51721 19.9121 7.55219 19.8742C7.58717 19.8363 7.61434 19.7919 7.63215 19.7436C7.64995 19.6952 7.65807 19.6437 7.65598 19.5922V11.2955H10.476C10.58 11.2912 10.6781 11.2459 10.7489 11.1695C10.8197 11.0931 10.8574 10.9919 10.8538 10.8878V7.59888C10.8543 7.49237 10.8146 7.38957 10.7426 7.3111C10.7089 7.27371 10.6678 7.24376 10.6219 7.2231C10.576 7.20245 10.5263 7.19153 10.476 7.19109H7.65486V5.26666C7.60312 5.08067 7.60033 4.88448 7.64676 4.6971C7.69319 4.50972 7.78727 4.33753 7.91986 4.19722C8.05245 4.05691 8.21907 3.95326 8.40353 3.89632C8.58799 3.83937 8.78404 3.83105 8.97265 3.87221H10.5893C10.6931 3.86787 10.7909 3.82269 10.8614 3.74651C10.932 3.67032 10.9696 3.56932 10.966 3.46554V0.411106C10.9705 0.306836 10.9335 0.205026 10.8631 0.12797C10.7927 0.0509145 10.6947 0.00489974 10.5904 0Z" fill="#247D46"/>
</svg>
