<svg width="19" height="18" viewBox="0 0 19 18" fill="none" xmlns="http://www.w3.org/2000/svg">
<path fill-rule="evenodd" clip-rule="evenodd" d="M5.01097 17.606V5.84827H1.19813V17.606H5.01097ZM3.099 4.24216C3.66058 4.23921 4.19803 4.01368 4.59357 3.61502C4.9891 3.21636 5.2104 2.67711 5.20893 2.11553C5.20746 1.55395 4.98335 1.01588 4.58573 0.6193C4.18811 0.222722 3.64945 0 3.08787 0C2.52628 0 1.98763 0.222722 1.59001 0.6193C1.19239 1.01588 0.968277 1.55395 0.966804 2.11553C0.965332 2.67711 1.1866 3.21636 1.58213 3.61502C1.97767 4.01368 2.51516 4.23921 3.07673 4.24216H3.099ZM7.12317 17.606H10.9349V11.0436C10.9201 10.7208 10.9615 10.3979 11.0572 10.0893C11.1945 9.67735 11.4566 9.31838 11.8072 9.06224C12.1578 8.80611 12.5795 8.66552 13.0137 8.66005C14.3918 8.66005 14.9479 9.73784 14.9479 11.3184V17.6104H18.7596V10.8645C18.7596 7.25192 16.8688 5.57241 14.3695 5.57241C13.6651 5.54759 12.9677 5.7192 12.3552 6.06805C11.7428 6.4169 11.2394 6.92925 10.9015 7.54778H10.9349V5.84827H7.12317C7.16767 6.9494 7.12317 17.606 7.12317 17.606Z" fill="#247D46"/>
</svg>
