<svg width="21" height="16" viewBox="0 0 21 16" fill="none" xmlns="http://www.w3.org/2000/svg">
<path fill-rule="evenodd" clip-rule="evenodd" d="M20.3908 1.89373C19.6653 2.21977 18.8947 2.43436 18.1051 2.53028C18.94 2.02186 19.5624 1.22811 19.8571 0.296007C19.0765 0.766074 18.2204 1.09744 17.3268 1.27543C16.9558 0.872634 16.5052 0.551272 16.0036 0.331721C15.5019 0.112171 14.9601 -0.000779336 14.4125 4.04719e-06C13.8856 0.00344427 13.3646 0.110654 12.8791 0.315503C12.3937 0.520353 11.9534 0.818826 11.5833 1.19389C11.2132 1.56895 10.9206 2.01325 10.7223 2.5014C10.524 2.98955 10.4238 3.51197 10.4274 4.03886C10.427 4.34879 10.4615 4.65777 10.5302 4.96C8.94076 4.87679 7.38698 4.45775 5.97122 3.73047C4.55547 3.00319 3.30987 1.98418 2.31651 0.740587C1.80709 1.62972 1.65112 2.67804 1.87962 3.67697C2.10812 4.6759 2.70436 5.55217 3.54966 6.13142C2.91621 6.111 2.29708 5.93771 1.74508 5.62629V5.6777C1.74099 6.60541 2.05713 7.50613 2.64012 8.22779C3.22311 8.94944 4.03724 9.44784 4.94508 9.63885C4.60283 9.73237 4.24959 9.77967 3.89479 9.77944C3.64348 9.77955 3.39276 9.75506 3.14622 9.7063C3.39561 10.5043 3.88879 11.2041 4.55645 11.7074C5.2241 12.2106 6.03267 12.492 6.86851 12.512C5.46213 13.6323 3.71687 14.2416 1.91881 14.24C1.60068 14.2402 1.2828 14.2219 0.966797 14.1851C2.78332 15.3691 4.90478 15.9996 7.07308 16C8.57494 15.9997 10.0618 15.7011 11.4473 15.1216C12.8329 14.5421 14.0896 13.6932 15.1445 12.6242C16.1993 11.5551 17.0314 10.2873 17.5924 8.89415C18.1534 7.501 18.4322 6.01031 18.4125 4.50858C18.4125 4.33373 18.4125 4.16001 18.4011 3.9863C19.1833 3.41375 19.8568 2.70582 20.3896 1.896L20.3908 1.89373Z" fill="#247D46"/>
</svg>
