<svg width="22" height="21" viewBox="0 0 22 21" fill="none" xmlns="http://www.w3.org/2000/svg">
<path d="M19.3418 8.75C19.3418 14.875 11.4668 20.125 11.4668 20.125C11.4668 20.125 3.5918 14.875 3.5918 8.75C3.5918 6.66142 4.42148 4.65838 5.89833 3.18153C7.37518 1.70469 9.37822 0.875 11.4668 0.875C13.5554 0.875 15.5584 1.70469 17.0353 3.18153C18.5121 4.65838 19.3418 6.66142 19.3418 8.75Z" stroke="#828282" stroke-width="1.7" stroke-linecap="round" stroke-linejoin="round"/>
<path d="M11.4668 11.375C12.9165 11.375 14.0918 10.1997 14.0918 8.75C14.0918 7.30025 12.9165 6.125 11.4668 6.125C10.017 6.125 8.8418 7.30025 8.8418 8.75C8.8418 10.1997 10.017 11.375 11.4668 11.375Z" stroke="#828282" stroke-width="1.7" stroke-linecap="round" stroke-linejoin="round"/>
</svg>
