<svg width="19" height="19" viewBox="0 0 19 19" fill="none" xmlns="http://www.w3.org/2000/svg">
<path d="M17.3413 13.3338V15.7446C17.3422 15.9685 17.297 16.19 17.2086 16.3951C17.1202 16.6001 16.9906 16.7842 16.828 16.9355C16.6655 17.0868 16.4735 17.202 16.2645 17.2737C16.0555 17.3454 15.8341 17.3721 15.6143 17.3519C13.1766 17.0832 10.835 16.2382 8.77769 14.8848C6.86361 13.6509 5.24081 12.0047 4.02453 10.063C2.6857 7.96647 1.85252 5.57952 1.59249 3.0955C1.57269 2.87327 1.59873 2.64929 1.66894 2.43783C1.73915 2.22636 1.85199 2.03205 2.00028 1.86725C2.14858 1.70245 2.32908 1.57078 2.53028 1.48062C2.73149 1.39046 2.949 1.34379 3.16896 1.34358H5.54554C5.93 1.33975 6.30271 1.47785 6.59422 1.73217C6.88572 1.98648 7.07612 2.33964 7.12993 2.72583C7.23024 3.49737 7.41627 4.25492 7.68446 4.98403C7.79105 5.27167 7.81412 5.58428 7.75093 5.88481C7.68775 6.18534 7.54097 6.46119 7.32798 6.67969L6.32189 7.7003C7.44962 9.71223 9.09176 11.3781 11.0751 12.5221L12.0811 11.5015C12.2965 11.2854 12.5685 11.1365 12.8647 11.0724C13.161 11.0083 13.4691 11.0317 13.7527 11.1398C14.4714 11.4119 15.2182 11.6006 15.9787 11.7024C16.3636 11.7575 16.715 11.9541 16.9662 12.2549C17.2175 12.5557 17.351 12.9396 17.3413 13.3338Z" stroke="#828282" stroke-width="1.55401" stroke-linecap="round" stroke-linejoin="round"/>
</svg>
