<svg width="273" height="56" viewBox="0 0 273 56" fill="none" xmlns="http://www.w3.org/2000/svg">
<rect x="0.966797" width="56" height="56" rx="7" fill="#247D46"/>
<path d="M82.2384 16.2736C80.4883 15.2951 78.9452 14.8058 77.6092 14.8058C76.4424 14.8058 75.8591 15.1822 75.8591 15.9349C75.8591 16.3489 76.1319 16.6876 76.6777 16.9511C77.2234 17.2145 77.8914 17.4592 78.6818 17.685C79.4722 17.892 80.2531 18.1555 81.0247 18.4754C81.815 18.7765 82.4831 19.2657 83.0288 19.9432C83.5745 20.6018 83.8474 21.4298 83.8474 22.4272C83.8474 23.9326 83.264 25.0994 82.0973 25.9274C80.9306 26.7554 79.4533 27.1694 77.6656 27.1694C75.0311 27.1694 72.8387 26.4637 71.0887 25.0523L72.5 22.1167C74.1372 23.3775 75.8967 24.0079 77.7785 24.0079C79.0582 24.0079 79.698 23.6127 79.698 22.8224C79.698 22.3895 79.4251 22.032 78.8794 21.7497C78.3525 21.4675 77.7032 21.2228 76.9317 21.0158C76.1602 20.8088 75.3792 20.5548 74.5888 20.2537C73.8173 19.9526 73.1587 19.4727 72.6129 18.8141C72.086 18.1555 71.8226 17.3369 71.8226 16.3583C71.8226 14.8529 72.3871 13.6861 73.5162 12.8581C74.6453 12.0301 76.0755 11.6161 77.8067 11.6161C79.9708 11.6161 81.9467 12.1807 83.7345 13.3098L82.2384 16.2736ZM107.418 11.6444C109.093 11.6444 110.419 12.1713 111.398 13.2251C112.395 14.2601 112.894 15.6715 112.894 17.4592V27H108.575V18.7294C108.575 17.7509 108.312 16.9887 107.785 16.443C107.258 15.8973 106.543 15.6244 105.64 15.6244C104.605 15.6432 103.786 16.0102 103.184 16.7253C102.582 17.4404 102.28 18.3625 102.28 19.4915V27H97.9617V18.7294C97.9617 17.7697 97.6982 17.017 97.1713 16.4712C96.6632 15.9067 95.9575 15.6244 95.0543 15.6244C94.0193 15.6432 93.1913 16.0102 92.5703 16.7253C91.9681 17.4404 91.667 18.3625 91.667 19.4915V27H87.32V11.8137H91.667V14.4389C92.7208 12.6135 94.4333 11.682 96.8044 11.6444C98.084 11.6444 99.166 11.9549 100.051 12.5759C100.935 13.178 101.565 14.0343 101.942 15.1445C102.92 12.8487 104.746 11.682 107.418 11.6444ZM123.735 11.6726C126.351 11.6726 128.289 12.4818 129.55 14.1001C130.829 15.6997 131.375 17.9108 131.187 20.7335H120.291C120.536 21.6933 121.006 22.446 121.703 22.9917C122.399 23.5186 123.236 23.7821 124.215 23.7821C125.701 23.7821 126.981 23.2458 128.054 22.1731L130.34 24.4878C128.741 26.2755 126.576 27.1694 123.848 27.1694C121.439 27.1694 119.51 26.4637 118.061 25.0523C116.631 23.641 115.916 21.778 115.916 19.4633C115.916 17.1299 116.64 15.248 118.089 13.8179C119.538 12.3877 121.42 11.6726 123.735 11.6726ZM120.207 18.1649H127.122C127.085 17.1675 126.765 16.3677 126.162 15.7655C125.56 15.1634 124.761 14.8623 123.763 14.8623C122.822 14.8623 122.032 15.1634 121.392 15.7655C120.771 16.3489 120.376 17.1487 120.207 18.1649ZM135.835 22.7659C136.475 22.7659 136.993 22.9729 137.388 23.3869C137.802 23.8009 138.009 24.3372 138.009 24.9959C138.009 25.6545 137.802 26.2002 137.388 26.633C136.993 27.047 136.475 27.254 135.835 27.254C135.214 27.254 134.697 27.0376 134.283 26.6048C133.869 26.172 133.662 25.6357 133.662 24.9959C133.662 24.3372 133.869 23.8009 134.283 23.3869C134.697 22.9729 135.214 22.7659 135.835 22.7659ZM154.899 27H150.636V25.2217C149.583 26.539 147.992 27.1976 145.866 27.1976C144.266 27.1976 142.996 26.7648 142.055 25.8991C141.114 25.0147 140.644 23.8668 140.644 22.4554C140.644 21.0252 141.143 19.915 142.14 19.1246C143.156 18.3154 144.586 17.9014 146.431 17.8826H150.608V17.6003C150.608 16.7911 150.335 16.1701 149.79 15.7373C149.263 15.2857 148.482 15.0599 147.447 15.0599C146.035 15.0599 144.53 15.5021 142.93 16.3865L141.575 13.3945C143.909 12.2277 146.195 11.6444 148.435 11.6444C150.467 11.6444 152.038 12.1242 153.149 13.084C154.278 14.0437 154.852 15.3798 154.871 17.0922L154.899 27ZM147.08 24.0926C147.983 24.0926 148.764 23.8762 149.423 23.4434C150.081 23.0105 150.476 22.4648 150.608 21.8062V20.4513H147.193C145.537 20.4513 144.709 21.0252 144.709 22.1731C144.709 22.7565 144.916 23.227 145.33 23.5845C145.763 23.9232 146.346 24.0926 147.08 24.0926ZM169.343 16.9793C168.458 15.8879 167.301 15.3515 165.871 15.3704C164.798 15.3704 163.923 15.7467 163.246 16.4995C162.587 17.2522 162.258 18.2307 162.258 19.4351C162.258 20.6583 162.596 21.6556 163.274 22.4272C163.951 23.1799 164.817 23.5563 165.871 23.5563C167.451 23.5563 168.628 22.9635 169.399 21.778L172.391 23.8103C171.751 24.883 170.848 25.711 169.681 26.2943C168.534 26.8777 167.188 27.1694 165.645 27.1694C163.349 27.1694 161.486 26.4637 160.056 25.0523C158.626 23.6221 157.911 21.7591 157.911 19.4633C157.911 17.1299 158.626 15.248 160.056 13.8179C161.486 12.3877 163.368 11.6726 165.701 11.6726C168.675 11.6726 170.867 12.7358 172.278 14.8623L169.343 16.9793ZM184.966 11.6726C187.092 11.6726 188.814 12.3971 190.131 13.8461C191.449 15.2763 192.107 17.1581 192.107 19.4915C192.107 21.7874 191.458 23.641 190.16 25.0523C188.88 26.4637 187.177 27.1694 185.051 27.1694C182.943 27.1694 181.315 26.379 180.167 24.7983V27H175.82V6.05536H180.167V14.0437C181.277 12.463 182.877 11.6726 184.966 11.6726ZM181.212 22.399C181.927 23.1705 182.839 23.5563 183.95 23.5563C185.06 23.5563 185.963 23.1705 186.659 22.399C187.356 21.6086 187.704 20.5924 187.704 19.3504C187.704 18.1272 187.356 17.1299 186.659 16.3583C185.963 15.568 185.06 15.1728 183.95 15.1728C182.839 15.1728 181.927 15.568 181.212 16.3583C180.515 17.1299 180.167 18.1272 180.167 19.3504C180.167 20.6112 180.515 21.6274 181.212 22.399ZM208.609 27H204.347V25.2217C203.293 26.539 201.703 27.1976 199.576 27.1976C197.977 27.1976 196.706 26.7648 195.765 25.8991C194.825 25.0147 194.354 23.8668 194.354 22.4554C194.354 21.0252 194.853 19.915 195.85 19.1246C196.866 18.3154 198.296 17.9014 200.141 17.8826H204.318V17.6003C204.318 16.7911 204.045 16.1701 203.5 15.7373C202.973 15.2857 202.192 15.0599 201.157 15.0599C199.745 15.0599 198.24 15.5021 196.64 16.3865L195.286 13.3945C197.619 12.2277 199.905 11.6444 202.145 11.6444C204.177 11.6444 205.748 12.1242 206.859 13.084C207.988 14.0437 208.562 15.3798 208.581 17.0922L208.609 27ZM200.79 24.0926C201.693 24.0926 202.474 23.8762 203.133 23.4434C203.791 23.0105 204.187 22.4648 204.318 21.8062V20.4513H200.903C199.247 20.4513 198.419 21.0252 198.419 22.1731C198.419 22.7565 198.626 23.227 199.04 23.5845C199.473 23.9232 200.056 24.0926 200.79 24.0926ZM214.133 22.7659C214.773 22.7659 215.29 22.9729 215.686 23.3869C216.1 23.8009 216.307 24.3372 216.307 24.9959C216.307 25.6545 216.1 26.2002 215.686 26.633C215.29 27.047 214.773 27.254 214.133 27.254C213.512 27.254 212.995 27.0376 212.581 26.6048C212.167 26.172 211.96 25.6357 211.96 24.9959C211.96 24.3372 212.167 23.8009 212.581 23.3869C212.995 22.9729 213.512 22.7659 214.133 22.7659ZM233.196 27H228.934V25.2217C227.88 26.539 226.29 27.1976 224.164 27.1976C222.564 27.1976 221.294 26.7648 220.353 25.8991C219.412 25.0147 218.942 23.8668 218.942 22.4554C218.942 21.0252 219.44 19.915 220.438 19.1246C221.454 18.3154 222.884 17.9014 224.728 17.8826H228.906V17.6003C228.906 16.7911 228.633 16.1701 228.087 15.7373C227.56 15.2857 226.779 15.0599 225.744 15.0599C224.333 15.0599 222.828 15.5021 221.228 16.3865L219.873 13.3945C222.207 12.2277 224.493 11.6444 226.732 11.6444C228.765 11.6444 230.336 12.1242 231.446 13.084C232.575 14.0437 233.149 15.3798 233.168 17.0922L233.196 27ZM225.377 24.0926C226.281 24.0926 227.062 23.8762 227.72 23.4434C228.379 23.0105 228.774 22.4648 228.906 21.8062V20.4513H225.49C223.834 20.4513 223.006 21.0252 223.006 22.1731C223.006 22.7565 223.213 23.227 223.627 23.5845C224.06 23.9232 224.643 24.0926 225.377 24.0926ZM257.605 11.6444C259.279 11.6444 260.606 12.1713 261.585 13.2251C262.582 14.2601 263.081 15.6715 263.081 17.4592V27H258.762V18.7294C258.762 17.7509 258.498 16.9887 257.972 16.443C257.445 15.8973 256.73 15.6244 255.826 15.6244C254.791 15.6432 253.973 16.0102 253.37 16.7253C252.768 17.4404 252.467 18.3625 252.467 19.4915V27H248.148V18.7294C248.148 17.7697 247.885 17.017 247.358 16.4712C246.85 15.9067 246.144 15.6244 245.241 15.6244C244.206 15.6432 243.378 16.0102 242.757 16.7253C242.155 17.4404 241.854 18.3625 241.854 19.4915V27H237.507V11.8137H241.854V14.4389C242.908 12.6135 244.62 11.682 246.991 11.6444C248.271 11.6444 249.353 11.9549 250.237 12.5759C251.122 13.178 251.752 14.0343 252.128 15.1445C253.107 12.8487 254.932 11.682 257.605 11.6444Z" fill="#247D46"/>
<path fill-rule="evenodd" clip-rule="evenodd" d="M235.835 46.8035H229.737V38.817H235.775L235.895 38.8488C236.582 38.9442 237.21 39.5806 237.389 40.3761C237.539 41.0443 237.449 42.0307 236.732 42.4125C236.732 42.4125 236.523 42.4443 236.702 42.4761C237.928 42.667 238.107 44.4171 237.868 45.308C237.659 46.1035 236.732 46.7399 236.014 46.8353L235.835 46.8035ZM94.1711 46.8353H88.0729V38.817H94.1412L94.2608 38.8488C94.9483 38.9442 95.5761 39.5806 95.7554 40.4079C95.9049 41.0761 95.8152 42.0625 95.0978 42.4443C95.0978 42.4443 94.8885 42.4761 95.0679 42.5079C96.2935 42.6989 96.4729 44.4489 96.2337 45.3398C96.0245 46.1353 95.0978 46.7717 94.3803 46.8671L94.1711 46.8353ZM90.8529 43.3034H90.554L91.2117 41.7761H92.8857C94.0216 41.5852 94.0216 40.217 92.8259 40.1533H90.0159V41.1397V43.6852V45.2126H93.0949H93.2145C93.8722 45.1489 94.0216 44.8944 94.1412 44.608C94.3504 43.9716 93.8722 43.2716 93.2743 43.3034H90.8529ZM109.835 43.9716H106.039V42.5079H109.835V43.9716ZM120.238 38.7851V46.8035H122.061V40.4397H124.602C126.037 40.4079 126.306 42.6034 124.543 42.6034H123.437L122.659 44.0671H124.363L126.097 46.8671H126.067H128.13L126.037 43.5898C128.249 43.0489 128.339 38.817 124.931 38.817H120.238V38.7851ZM73.9334 38.8488L76.3846 38.817L79.912 46.8035L77.8793 46.8353L75.159 40.6624L73.9334 43.6216H76.1754L75.4878 45.0535L73.3953 45.0216L72.6181 46.8353L70.6152 46.8035L73.9334 38.8488ZM87.206 39.2942V40.8534C86.1597 40.3443 84.2166 39.867 82.8416 40.8215C81.4964 41.9034 81.6159 44.0034 82.8416 44.8944C84.3063 45.8808 86.0102 45.4035 87.206 44.8944V46.4217C85.7113 47.0262 83.7384 47.1853 81.885 46.4217C80.1512 45.5626 79.4038 43.3034 80.0914 41.3943C81.048 38.5306 84.8444 38.0215 87.206 39.2942ZM99.6117 38.8488L102.063 38.817L105.59 46.8035L103.558 46.8353L100.837 40.6624L99.6117 43.6216H101.854L101.166 45.0535L99.0736 45.0216L98.2963 46.8353L96.2935 46.8035L99.6117 38.8488ZM163.374 38.8488L165.825 38.817L169.353 46.8035L167.32 46.8353L164.6 40.6624L163.374 43.6216H165.616L164.928 45.0535L162.836 45.0216L162.059 46.8353L160.056 46.8035L163.374 38.8488ZM176.856 39.2942V40.8534C175.809 40.3443 173.866 39.867 172.491 40.8215C171.146 41.9034 171.266 44.0034 172.491 44.8944C173.627 45.658 174.913 45.5307 176.019 45.2126V44.0671H173.657L174.255 42.6352H177.663V46.2944C176.886 46.5808 176.078 46.7399 175.391 46.8671C174.195 47.0581 172.85 46.9944 171.535 46.4535C169.801 45.5944 169.054 43.3352 169.741 41.4261C170.728 38.5306 174.494 38.0215 176.856 39.2942ZM210.097 38.7851H212.04V45.3717H216.315L215.657 46.8035L210.097 46.7717V38.7851ZM154.824 40.4397V46.8035H152.881V40.4397H150.042L150.819 38.817H157.814L157.007 40.4397H154.824ZM188.454 38.7851H190.397V46.8035H188.454V38.7851ZM147.112 38.7851H149.055V46.8035H147.112V38.7851ZM223.16 41.9988L221.994 43.5262H219.155L220.32 41.9988H223.16ZM216.972 38.817L216.943 46.8353H223.878L224.535 45.3717H219.035V40.4079H224.177L223.639 38.8488L216.972 38.817ZM199.276 39.2942V40.8534C198.229 40.3443 196.286 39.867 194.911 40.8215C193.566 41.9034 193.686 44.0034 194.911 44.8944C196.376 45.8808 198.08 45.4035 199.276 44.8944V46.4217C197.781 47.0262 195.808 47.1853 193.955 46.4217C192.221 45.5626 191.473 43.3034 192.161 41.3943C193.118 38.5306 196.914 38.0215 199.276 39.2942ZM179.397 38.7851V46.8035H181.22V40.4397H183.761C185.196 40.4079 185.465 42.6034 183.701 42.6034H182.595L181.818 44.0671H183.522L185.256 46.8671H185.226H187.288L185.196 43.5898C187.408 43.0489 187.498 38.817 184.09 38.817H179.397V38.7851ZM118.893 39.3579V40.917C117.847 40.4079 115.903 39.9306 114.528 40.8852C113.183 41.967 113.303 44.0671 114.528 44.958C115.993 45.9444 117.697 45.4671 118.893 44.958V46.4853C117.398 47.0899 115.425 47.249 113.572 46.4853C111.838 45.6262 111.091 43.3671 111.778 41.4579C112.735 38.5942 116.531 38.0851 118.893 39.3579ZM135.304 41.9988L134.168 43.5262H131.298L132.464 41.9988H135.304ZM129.116 38.817V46.8353H136.051L136.709 45.3717H131.209V40.4079H136.35L135.812 38.8488L129.116 38.817ZM137.815 38.8488V46.8035H141.881C146.664 46.8353 146.843 38.817 141.791 38.8488H137.815ZM139.728 40.4397V45.308H141.851C141.881 45.308 141.94 45.308 141.97 45.308C142 45.308 142.03 45.308 142.09 45.308C142.12 45.308 142.15 45.308 142.209 45.2762C142.239 45.2762 142.269 45.2762 142.299 45.2444C142.389 45.2126 142.508 45.1807 142.598 45.1489C142.628 45.1489 142.658 45.1171 142.688 45.1171C142.718 45.0853 142.748 45.0853 142.777 45.0535C142.807 45.0216 142.837 45.0216 142.867 44.9898C142.897 44.958 142.927 44.958 142.957 44.9262C144.093 43.9716 144.063 41.4897 142.777 40.6943C142.748 40.6624 142.718 40.6625 142.688 40.6306C142.658 40.5988 142.628 40.5988 142.598 40.5988C142.568 40.5988 142.538 40.567 142.508 40.567C142.479 40.567 142.449 40.5352 142.419 40.5352C142.389 40.5352 142.359 40.5034 142.299 40.5034C142.269 40.5034 142.239 40.4715 142.18 40.4715C142.15 40.4715 142.09 40.4715 142.06 40.4397C142.03 40.4397 141.97 40.4397 141.94 40.4397C141.911 40.4397 141.851 40.4397 141.821 40.4397H139.728ZM241.634 38.8806L244.056 38.8488L247.583 46.8035L245.55 46.8353L242.83 40.6624L241.604 43.5898H243.846L243.159 45.0216L241.066 44.9898L240.289 46.7717L238.286 46.7399L241.634 38.8806ZM248.181 38.8488H250.542L253.95 44.3216V38.8488H255.624V46.8353H253.442L249.735 41.0443V46.8353H248.151V38.8488H248.181ZM257.059 38.9124H258.972V41.8398L261.364 38.9124H263.516L260.886 42.1261L264.024 46.8035H261.872L259.72 43.558L259.002 44.4489V46.8035H257.059V38.9124ZM204.298 38.6897C206.809 38.6897 208.871 40.5352 208.871 42.8261C208.871 45.1171 206.839 46.9626 204.298 46.9626C201.787 46.9626 199.724 45.1171 199.724 42.8261C199.754 40.567 201.787 38.6897 204.298 38.6897ZM204.298 40.1215C205.733 40.1215 206.869 41.3625 206.869 42.858C206.869 44.3853 205.703 45.5944 204.298 45.5944C202.863 45.5944 201.727 44.3534 201.727 42.858C201.727 41.3306 202.893 40.1215 204.298 40.1215ZM232.517 43.3352H232.218L232.876 41.8079H234.55C235.686 41.617 235.686 40.2488 234.49 40.1852H231.68V41.1397V43.6852V45.2126H234.729H234.849C235.506 45.1489 235.656 44.8944 235.775 44.608C235.984 44.0034 235.506 43.3034 234.908 43.3034L232.517 43.3352Z" fill="#AEAEAE"/>
<path fill-rule="evenodd" clip-rule="evenodd" d="M14.9668 18.3545V35.7015L24.065 40.6053V43.9987H28.8032V11L14.9668 18.3545ZM30.1304 11V44H34.8686V40.6053L43.9668 35.7015V30.7989L34.6788 35.8916V18.1656L40.1762 21.1814V30.7989L43.9668 28.9148V18.3531L30.1291 11H30.1304ZM24.2534 35.8916C24.065 35.8916 22.9289 35.3238 21.4105 34.5712C20.6527 34.0048 19.5152 33.6272 18.7574 33.0634V21.18L21.4118 19.6722L24.2534 18.1643V35.8916Z" fill="white"/>
</svg>
