<svg width="131" height="29" viewBox="0 0 131 29" fill="none" xmlns="http://www.w3.org/2000/svg">
<path d="M8.67224 16.8473V15.5669H3.47716L8.43945 8.26948V6.98913H1.31549V8.2504H5.98652L0.966797 15.4886V16.8473H8.67224ZM19.0705 11.7631C19.0705 8.69626 17.4167 6.73608 14.4004 6.73608C10.6646 6.73608 9.5359 9.66731 9.5359 12.0543C9.5359 15.1201 11.1897 17.0832 14.2059 17.0832C17.9418 17.0832 19.0705 14.15 19.0705 11.7631ZM16.677 11.8986C16.677 14.3629 16.0542 15.7406 14.342 15.7406C12.5522 15.7406 11.9294 14.1882 11.9294 11.8986C11.9294 9.43434 12.5522 8.07567 14.2644 8.07567C16.0542 8.07567 16.677 9.60907 16.677 11.8986ZM29.8778 11.7631C29.8778 8.69626 28.2231 6.73608 25.2078 6.73608C21.471 6.73608 20.3423 9.66731 20.3423 12.0543C20.3423 15.1201 21.996 17.0832 25.0123 17.0832C28.7491 17.0832 29.8778 14.15 29.8778 11.7631ZM27.4844 11.8986C27.4844 14.3629 26.8616 15.7406 25.1494 15.7406C23.3585 15.7406 22.7357 14.1882 22.7357 11.8986C22.7357 9.43434 23.3585 8.07567 25.0707 8.07567C26.8616 8.07567 27.4844 9.60907 27.4844 11.8986ZM45.8017 16.8473V10.8121C45.8017 10.3652 45.8017 9.64722 45.6465 8.94931C45.1597 6.89173 43.2722 6.73608 42.4549 6.73608C40.275 6.73608 39.1473 8.01742 39.1473 8.01742C39.1473 8.01742 38.5628 6.75616 36.4223 6.75616C34.437 6.75616 33.5623 7.95918 33.5623 7.95918V6.96905H31.325V16.8473H33.6207V8.61893C33.6207 8.61893 34.2425 8.2504 35.2553 8.2504C36.5009 8.2504 37.1429 8.79366 37.3182 9.82195C37.3958 10.2879 37.3958 10.7538 37.3958 11.3363V16.8473H39.7107V11.1806C39.7107 10.7538 39.7308 9.91936 39.6139 9.27869C39.5746 9.08148 39.5228 8.88694 39.4587 8.69626C39.4587 8.69626 40.1974 8.26948 41.2879 8.26948C42.2795 8.26948 43.2329 8.54061 43.4284 9.80287C43.506 10.2688 43.506 10.7538 43.506 11.3363V16.8473H45.8017ZM78.5775 7.06646C78.2853 6.94997 77.9164 6.77524 77.2543 6.77524C75.6782 6.77524 74.8609 8.21123 74.8609 8.21123V6.96905H72.6427V16.8473H74.9385V8.83283C74.9385 8.83283 75.5421 8.46328 76.4763 8.46328C77.3329 8.46328 77.8187 8.79366 78.0323 8.94931L78.5775 7.06646ZM87.0539 16.8473V11.025C87.0539 10.4827 87.0741 9.18228 86.8786 8.59985C86.6841 7.99734 86.1006 6.75616 83.4733 6.75616C81.4114 6.75616 80.2434 7.26027 80.2434 7.26027L80.7301 8.61893C80.7301 8.61893 81.6059 8.09475 82.8898 8.09475C83.7847 8.09475 84.4277 8.32772 84.6796 9.08488C84.7965 9.43434 84.8167 9.99668 84.8167 10.541V11.2389C84.8167 11.2389 84.0961 11.1806 83.4159 11.1806C82.2287 11.1806 81.1776 11.2579 80.3986 11.8213C79.6982 12.3254 79.3102 13.0826 79.3102 14.1309C79.3102 15.8772 80.4963 16.9858 82.3446 16.9858C84.077 16.9858 84.8741 15.9355 84.8741 15.9355V16.8473H87.0539ZM84.8167 15.3721C84.8167 15.3721 84.3108 15.6252 83.435 15.6252C82.5391 15.6252 81.5857 15.2757 81.5857 14.0144C81.5857 13.5284 81.7419 12.9661 82.2287 12.6357C82.6167 12.3846 83.1427 12.2672 83.8049 12.2672C84.6211 12.2672 84.8167 12.2872 84.8167 12.2872V15.3721ZM98.3279 11.6857C98.3279 8.59985 96.7517 6.81441 94.2414 6.81441C92.2369 6.81441 91.4589 7.97927 91.4589 7.97927V6.96905H89.2216V20.7787H91.5174V16.6143C91.5174 16.6143 92.1392 17.026 93.6186 17.026C96.2841 17.026 98.3279 14.9453 98.3279 11.6847V11.6857ZM95.9344 11.8595C95.9344 14.2665 95.0395 15.7607 92.763 15.7607C91.984 15.7607 91.5174 15.586 91.5174 15.586V8.65709C91.5174 8.65709 92.12 8.28856 93.1318 8.28856C94.9619 8.28856 95.9334 9.70547 95.9334 11.8595H95.9344ZM108.473 16.8473V10.9095C108.473 10.4626 108.473 9.66731 108.317 8.96839C108.084 7.95918 107.267 6.75616 105.223 6.75616C103.16 6.75616 102.305 7.95918 102.305 7.95918V2.55865H100.009V16.8473H102.305V8.61893C102.305 8.61893 103.005 8.2504 103.978 8.2504C105.106 8.2504 105.885 8.69626 106.099 9.80287C106.177 10.2297 106.177 10.793 106.177 11.4136V16.8473H108.473ZM113.217 4.40536C113.217 3.6492 112.652 3.18326 111.855 3.18326C110.999 3.18326 110.453 3.66828 110.453 4.48368C110.453 5.24084 111.018 5.70578 111.816 5.70578C112.673 5.70578 113.217 5.22076 113.217 4.40536ZM113.003 16.8473V6.96905H110.706V16.8473H113.003ZM122.439 7.26027C122.439 7.26027 121.427 6.77524 119.851 6.77524C117.516 6.77524 116.153 7.76537 115.415 8.94931C114.85 9.84204 114.617 10.9095 114.617 12.0924C114.617 15.0226 116.29 17.0059 119.423 17.0059C121.486 17.0059 122.42 16.4205 122.42 16.4205L121.952 15.1201C121.759 15.2365 121.076 15.586 120.045 15.586C117.788 15.586 116.971 13.8196 116.971 11.8986C116.971 9.27869 118.003 8.15299 120.065 8.15299C121.291 8.15299 121.972 8.63801 121.972 8.63801L122.439 7.26027ZM130.561 13.9562C130.561 12.7331 129.938 11.9579 128.771 11.3553L127.291 10.5791C126.455 10.1322 126.046 9.91936 126.046 9.22044C126.046 8.32772 126.941 8.09575 127.72 8.09575C128.984 8.09575 129.86 8.63801 129.86 8.63801L130.327 7.28035C130.327 7.28035 129.334 6.75616 127.486 6.75616C125.423 6.75616 124.022 7.62981 124.022 9.49258C124.022 10.8312 124.703 11.511 125.949 12.2089L127.467 13.0625C128.147 13.4511 128.459 13.665 128.459 14.3247C128.459 15.1391 127.816 15.6252 126.63 15.6252C124.996 15.6252 124.139 15.0809 124.139 15.0809L123.672 16.4205C123.672 16.4205 124.684 16.9858 126.844 16.9858C128.575 16.9858 130.561 16.3622 130.561 13.9562Z" fill="#231F20"/>
<path fill-rule="evenodd" clip-rule="evenodd" d="M59.1597 0.00100419C65.2215 0.00100419 70.1374 4.90446 70.1374 10.9497C70.1374 14.1792 68.7346 17.0823 66.5024 19.0866C66.5961 18.695 66.6384 18.3013 66.6384 17.9147C66.6384 14.4352 63.4095 14.4352 61.9382 14.4352C60.4678 14.4352 60.1222 14.4925 59.0267 14.4925C58.1036 14.4925 57.2097 14.4061 57.2097 13.2563C57.2097 12.5092 57.8154 11.991 57.8154 11.991C57.8154 11.991 58.3344 12.0774 59.0852 12.0774C62.948 12.0774 64.6934 10.0007 64.8799 7.30447C65.3051 1.14277 53.0315 1.02126 53.1736 7.21811C53.2592 10.9838 56.5466 11.6466 56.5466 11.6466C56.5466 11.6466 54.3265 12.5373 54.3265 14.6943C54.3133 15.0991 54.4179 15.499 54.6276 15.8459C54.8374 16.1928 55.1433 16.4719 55.5086 16.6495C55.5086 16.6495 52.6818 17.1967 52.3905 19.5686C51.0779 18.545 50.0167 17.2368 49.2873 15.7434C48.5579 14.2499 48.1796 12.6106 48.181 10.9497C48.181 4.90446 53.097 0 59.1597 0V0.00100419Z" fill="#231F20"/>
<path d="M63.4035 7.35671C63.4035 8.3137 63.212 9.3681 62.0702 9.9184C61.6079 10.1126 61.1106 10.2104 60.6089 10.2056C58.5148 10.2056 57.8164 8.8409 57.8164 7.38081C57.8164 6.44691 58.0068 5.41662 59.1174 4.86632C59.4983 4.69862 60.0063 4.55502 60.5787 4.55502C62.6728 4.55502 63.4035 5.89561 63.4035 7.35671ZM1.81132 27.4505L1.84961 27.1844V26.3218L1.87279 25.1931V23.7581L1.84961 22.8272V22.294L1.82643 21.9807L1.81132 21.7668L2.17915 21.7899L2.52281 21.7668L2.47746 21.9877V23.7581L2.46133 24.4219L2.47746 25.2001V27.2146L2.52281 27.4505H1.81132ZM10.6112 23.8806C10.8561 23.7792 11.1141 23.728 11.3842 23.728C11.9294 23.728 12.3647 23.9027 12.6882 24.2502C13.0117 24.5996 13.174 25.0505 13.174 25.6058C13.174 26.1642 13.0057 26.6261 12.6701 26.9896C12.3325 27.3531 11.881 27.5349 11.3146 27.5349C10.9478 27.5349 10.6213 27.4485 10.3361 27.2758C10.0322 27.1108 9.79453 26.8466 9.66289 26.5277C9.55044 26.2679 9.49544 25.9871 9.50164 25.7043C9.50164 24.7834 9.8715 24.1759 10.6112 23.8806ZM10.191 25.6882C10.1831 25.9369 10.2193 26.185 10.2978 26.4212C10.451 26.9756 10.7845 27.2527 11.2995 27.2527C11.8608 27.2527 12.2277 26.9113 12.401 26.2304C12.4568 26.0163 12.4852 25.796 12.4857 25.5747C12.4857 25.1781 12.4061 24.8296 12.2478 24.5293C12.0654 24.1829 11.7691 24.0102 11.361 24.0102C10.8359 24.0102 10.4862 24.3054 10.3129 24.8959C10.2323 25.1399 10.191 25.404 10.191 25.6892V25.6882ZM20.8421 23.8806C21.086 23.7792 21.344 23.728 21.6141 23.728C22.1603 23.728 22.5947 23.9027 22.9181 24.2502C23.2426 24.5996 23.4039 25.0505 23.4039 25.6058C23.4039 26.1642 23.2356 26.6261 22.9 26.9896C22.5624 27.3531 22.1119 27.5349 21.5456 27.5349C21.1787 27.5349 20.8522 27.4485 20.566 27.2758C20.2621 27.1108 20.0244 26.8467 19.8928 26.5277C19.7803 26.2679 19.7253 25.9871 19.7316 25.7043C19.7316 24.7834 20.1024 24.1759 20.8421 23.8806ZM20.4209 25.6882C20.4209 25.8258 20.4289 25.9503 20.4441 26.0627C20.4592 26.1742 20.4874 26.2937 20.5277 26.4212C20.6809 26.9756 21.0155 27.2527 21.5304 27.2527C22.0908 27.2527 22.4576 26.9113 22.6319 26.2304C22.6872 26.0162 22.7153 25.7959 22.7156 25.5747C22.7156 25.1781 22.637 24.8296 22.4788 24.5293C22.2953 24.1829 21.9991 24.0102 21.5919 24.0102C21.0659 24.0102 20.7162 24.3054 20.5438 24.8959C20.4622 25.1399 20.4209 25.404 20.4209 25.6892V25.6882ZM30.5289 21.7909L30.8957 21.7668L30.8655 21.9506V22.2097L30.8352 23.0411V25.3759L31.0035 25.3678C31.059 25.3578 31.1275 25.3126 31.2091 25.2313L31.4157 25.0405C31.5135 24.9591 31.6535 24.8115 31.837 24.5976L32.2038 24.201L32.3872 23.9951L32.5182 23.8043L32.8921 23.8274L33.2287 23.8043L33.015 24.0021L32.3418 24.5896L31.8601 25.0244L31.5074 25.3377L31.8863 25.7535L32.4567 26.4062L33.0382 27.0619L33.2599 27.2758L33.4816 27.4505L32.9002 27.4355L32.486 27.4505L32.363 27.2698L32.1746 27.0228L31.7069 26.4363L31.1869 25.8489L30.9491 25.5747H30.8342V26.9474C30.8342 27.075 30.8443 27.1664 30.8655 27.2226L30.8957 27.4505L30.5289 27.4355L30.1842 27.4505L30.2144 27.2376V26.9474L30.2457 26.2535V23.0331L30.2154 22.2097V21.9657L30.1852 21.7668L30.5279 21.7899L30.5289 21.7909ZM40.2005 27.2376V26.4664L40.2237 25.5355L40.2005 24.7965V24.0102L40.1622 23.8043L40.5149 23.8274L40.8737 23.8043L40.8354 24.0182V24.8115L40.8122 25.5355L40.8354 26.4664V27.2457L40.8737 27.4505L40.53 27.4355L40.1622 27.4505L40.2005 27.2376ZM40.2549 22.2328C40.2917 22.194 40.3361 22.1631 40.3853 22.1421C40.4345 22.121 40.4875 22.1102 40.5411 22.1103C40.8031 22.1103 40.9341 22.2408 40.9341 22.4999C40.9341 22.7539 40.8031 22.8815 40.5411 22.8815C40.4898 22.8831 40.4388 22.8744 40.391 22.8559C40.3432 22.8375 40.2996 22.8096 40.2628 22.774C40.226 22.7384 40.1968 22.6958 40.1769 22.6487C40.1571 22.6016 40.1469 22.551 40.1471 22.4999C40.1471 22.3924 40.1833 22.3041 40.2549 22.2328ZM48.1387 27.2909L48.1568 27.0699L48.174 26.7034V24.2542L48.1387 23.9489L48.1206 23.8043L48.4652 23.8274L48.8018 23.8043L48.7635 23.9419L48.7404 24.209V24.4149L48.8714 24.2391C49.1545 23.8977 49.5163 23.727 49.9527 23.727C50.2883 23.727 50.5725 23.8204 50.8033 24.0062C51.034 24.1919 51.1661 24.455 51.1963 24.7965V27.0388L51.2185 27.3059L51.2416 27.4505L50.898 27.4355L50.5382 27.4505L50.5705 27.2899L50.5916 26.9856V25.0475C50.5836 25.0125 50.5785 24.9769 50.5765 24.9411C50.572 24.8286 50.544 24.7183 50.4944 24.6171C50.4448 24.516 50.3746 24.4263 50.2883 24.3536C50.1196 24.2121 49.9052 24.1361 49.6846 24.1397C49.1777 24.1397 48.8855 24.4099 48.8089 24.9481L48.7635 25.4602V27.0529L48.7928 27.2899L48.8321 27.4505L48.4491 27.4345L48.1206 27.4495L48.1387 27.2889V27.2909ZM58.6951 27.0157C58.5067 26.9294 58.413 26.7767 58.413 26.5578C58.413 26.2987 58.6085 26.0909 59.0015 25.9332L58.7496 25.8408C58.3767 25.6852 58.1903 25.3759 58.1903 24.914C58.1903 24.4882 58.3717 24.1709 58.7345 23.963C58.81 23.9178 58.8856 23.8806 58.9592 23.8505C59.0377 23.8185 59.12 23.7966 59.2041 23.7852C59.2928 23.7722 59.3855 23.7611 59.4792 23.7511C59.5739 23.7411 59.6767 23.736 59.7896 23.736H60.102L60.5767 23.7662H61.005L61.4413 23.7059V24.1086L61.0584 24.0564H60.7298C60.9959 24.2733 61.1279 24.5434 61.1279 24.8627C61.1279 24.9984 61.0991 25.1326 61.0433 25.2564C60.9829 25.4138 60.8825 25.5529 60.752 25.6601C60.4678 25.9171 60.1282 26.0477 59.7352 26.0477H59.3986C59.063 26.0477 58.8947 26.1511 58.8947 26.36C58.8947 26.5638 59.0731 26.6653 59.4298 26.6653H60.2794C60.625 26.6653 60.9042 26.7315 61.1128 26.8621C61.2391 26.9329 61.3436 27.0367 61.415 27.1623C61.4864 27.288 61.522 27.4307 61.5179 27.5751C61.5179 28.0089 61.3093 28.3704 60.8911 28.6596C60.5585 28.8865 60.1494 29 59.6586 29H59.3603C59.307 28.9892 59.2536 28.9792 59.2 28.9699C58.8836 28.9237 58.6367 28.8293 58.4583 28.6867C58.2134 28.4939 58.0905 28.2669 58.0905 28.0079C58.0905 27.6162 58.3837 27.321 58.9703 27.1232C58.8727 27.1044 58.7795 27.068 58.6951 27.0157ZM58.6045 27.9697C58.6045 28.2288 58.7234 28.4276 58.9632 28.5652C59.1416 28.6666 59.3814 28.7168 59.6818 28.7168C60.0184 28.7168 60.2935 28.6566 60.5081 28.5341C60.7994 28.3714 60.9445 28.1424 60.9445 27.8472C60.9445 27.3853 60.5595 27.1543 59.7896 27.1543C59.6112 27.1543 59.4449 27.1684 59.2917 27.1995C58.8332 27.2899 58.6034 27.5479 58.6034 27.9697H58.6045ZM58.8947 24.8868C58.8947 25.4773 59.1426 25.7725 59.6404 25.7725C59.7521 25.7762 59.8631 25.7539 59.9647 25.7076C60.0663 25.6612 60.1557 25.592 60.226 25.5054C60.363 25.3528 60.4315 25.1439 60.4315 24.8798C60.438 24.6395 60.3539 24.4056 60.1957 24.2241C60.0788 24.0815 59.9015 24.0102 59.6626 24.0102C59.5515 24.0052 59.4408 24.026 59.3392 24.071C59.2376 24.116 59.1479 24.1838 59.0771 24.2693C58.9562 24.443 58.8947 24.6488 58.8947 24.8878V24.8868ZM69.9278 23.9871L69.9046 23.7662L70.0044 23.7963C70.0649 23.8164 70.1596 23.8264 70.2866 23.8264H70.4095L70.4327 23.5834C70.4579 23.3896 70.4801 23.254 70.4972 23.1747C70.5175 23.0878 70.5445 23.0025 70.5778 22.9196C70.6536 22.6887 70.7718 22.4738 70.9265 22.286C71.0773 22.0899 71.2688 21.9286 71.4878 21.813C71.5544 21.7829 71.6108 21.7608 71.6572 21.7477C71.7095 21.7343 71.7634 21.7278 71.8174 21.7287H71.9323L72.0159 21.7518L71.9927 22.0731L72.0159 22.4155L71.8174 22.3523C71.7381 22.3281 71.6555 22.3162 71.5725 22.3171C71.1492 22.3171 70.9376 22.528 70.9376 22.9538L70.9658 23.3866L71.0212 23.8274H71.2974L71.6491 23.7842L71.8174 23.7662L71.7871 23.9951L71.8023 24.209L71.5806 24.1789L71.244 24.1478H71.0061L70.9991 24.3807V25.8669L71.0212 26.9284V27.2387L71.0595 27.4505L70.7229 27.4355L70.348 27.4505L70.3783 27.2376V26.9163L70.4095 25.8569V24.1478H70.2876C70.2127 24.1481 70.1381 24.1582 70.0659 24.1779L69.9046 24.208L69.9278 23.9871ZM79.2245 23.8806C79.4694 23.7792 79.7274 23.728 79.9975 23.728C80.5427 23.728 80.9781 23.9027 81.3015 24.2502C81.626 24.5996 81.7873 25.0505 81.7873 25.6058C81.7873 26.1642 81.619 26.6261 81.2834 26.9896C80.9458 27.3531 80.4943 27.5349 79.929 27.5349C79.5611 27.5349 79.2346 27.4485 78.9494 27.2758C78.6455 27.1108 78.4079 26.8466 78.2762 26.5277C78.1638 26.2679 78.1088 25.9871 78.115 25.7043C78.115 24.7834 78.4858 24.1759 79.2245 23.8806ZM78.8043 25.6882C78.7965 25.9369 78.8327 26.185 78.9111 26.4212C79.0643 26.9756 79.3979 27.2527 79.9128 27.2527C80.4742 27.2527 80.841 26.9113 81.0153 26.2304C81.071 26.0163 81.0991 25.7959 81.099 25.5747C81.099 25.1781 81.0204 24.8296 80.8622 24.5293C80.6787 24.1829 80.3825 24.0102 79.9753 24.0102C79.4493 24.0102 79.0996 24.3054 78.9272 24.8959C78.8446 25.1399 78.8043 25.404 78.8043 25.6892V25.6882ZM88.7127 27.2527V26.597L88.7208 25.6661V24.689L88.7127 24.2853V23.972L88.6593 23.8043L89.0423 23.8274L89.4091 23.8043L89.3819 23.9871L89.3476 24.2622V24.4601L89.5542 24.1789C89.7991 23.8776 90.0571 23.727 90.3272 23.727L90.5106 23.7511L90.6104 23.7732L90.5106 24.0865L90.4804 24.4219L90.304 24.3617C90.2331 24.3354 90.1579 24.3225 90.0823 24.3235C89.6389 24.3235 89.3869 24.6077 89.3285 25.1771C89.3182 25.2963 89.3118 25.4159 89.3093 25.5355V26.9625L89.3476 27.2376L89.3708 27.4505L89.0493 27.4355L88.6593 27.4505L88.7127 27.2527ZM97.0994 23.8274L97.4894 23.8043L97.5428 24.0333L97.6124 24.2843L97.7343 24.7041L97.9681 25.3588L98.1526 25.9111L98.4146 26.5809L98.6595 25.9402L98.8671 25.3608L99.0928 24.6599L99.1996 24.3165L99.2873 24.0252L99.3407 23.8043L99.6017 23.8274L99.8617 23.8043L99.9303 24.0333L100.022 24.3305L100.144 24.7121L100.366 25.3608L100.58 25.9704L100.81 26.597L101.055 25.9945L101.292 25.3528L101.512 24.7041L101.652 24.3004L101.728 24.0333L101.773 23.8043L102.08 23.8274L102.37 23.8043L102.255 24.0333L102.102 24.3456L101.927 24.7352L101.647 25.4231L101.17 26.604L100.993 27.0539L100.926 27.2748L100.873 27.4505H100.437L100.399 27.2758L100.33 27.0308L100.201 26.603L99.9716 25.9543L99.6693 25.1469L99.4697 24.6278L99.2782 25.168L98.996 25.9553L98.7905 26.5658L98.6373 27.0308L98.5688 27.2828L98.5224 27.4505H98.087L98.0326 27.2758L97.956 27.0157L97.7877 26.5357L97.3675 25.4291L97.1075 24.7422L96.916 24.2924L96.8011 24.0252L96.7024 23.8043L97.0994 23.8274ZM109.09 24.1709L109.189 24.0865C109.391 23.946 109.616 23.8426 109.855 23.7812C109.931 23.7662 110.006 23.7531 110.081 23.7431C110.33 23.7094 110.584 23.7275 110.826 23.7963C111.101 23.8827 111.313 24.0433 111.461 24.2783C111.563 24.4249 111.614 24.684 111.614 25.0555V27.0238C111.63 27.1764 111.713 27.2527 111.866 27.2527L111.989 27.2447L112.035 27.4204L111.966 27.4435L111.76 27.5038L111.523 27.5349C111.29 27.5349 111.144 27.4284 111.084 27.2146L111.04 27.0619L110.924 27.1463C110.847 27.2065 110.764 27.2607 110.67 27.3069C110.573 27.3672 110.468 27.4134 110.354 27.4435C110.074 27.5517 109.765 27.5651 109.477 27.4817C109.004 27.3541 108.768 27.0549 108.768 26.5809C108.768 26.4082 108.802 26.2535 108.867 26.116C108.944 25.9396 109.077 25.7935 109.246 25.7002C109.407 25.6159 109.605 25.5566 109.84 25.5205L110.573 25.3839L110.85 25.3146C110.895 25.302 110.937 25.2786 110.971 25.2463C111.007 25.2052 111.031 25.1552 111.04 25.1017V24.934C111.01 24.6227 110.933 24.3998 110.811 24.2612C110.658 24.0945 110.438 24.0102 110.153 24.0102C110.03 24.0102 109.917 24.0242 109.812 24.0524C109.712 24.0787 109.615 24.1186 109.525 24.1709C109.382 24.2472 109.265 24.3868 109.174 24.5906H109.09V24.1709ZM111.04 25.5898L110.568 25.6661C110.422 25.6886 110.277 25.7218 110.136 25.7655C109.684 25.882 109.457 26.119 109.457 26.4745C109.457 26.9012 109.694 27.1151 110.167 27.1151C110.472 27.1151 110.732 27.0107 110.947 26.8028L111.04 26.7034V25.5888V25.5898ZM118.823 27.2527V26.597L118.83 25.6661V24.689L118.823 24.2853V23.972L118.77 23.8043L119.152 23.8274L119.518 23.8043L119.492 23.9871L119.458 24.2622V24.4601L119.665 24.1789C119.908 23.8776 120.166 23.727 120.436 23.727L120.62 23.7511L120.72 23.7732L120.62 24.0865L120.59 24.4219L120.414 24.3617C120.343 24.3354 120.268 24.3224 120.192 24.3235C119.748 24.3235 119.497 24.6077 119.439 25.1771C119.426 25.2962 119.42 25.4158 119.42 25.5355V26.9625L119.458 27.2376L119.481 27.4505L119.159 27.4355L118.77 27.4505L118.823 27.2527ZM129.768 27.2909L129.803 26.8862V26.6351L129.703 26.8179C129.428 27.2959 129.015 27.5349 128.463 27.5349C127.958 27.5349 127.563 27.3371 127.278 26.9394C127.033 26.5889 126.91 26.1511 126.91 25.6279C126.91 25.0937 127.048 24.6539 127.324 24.3084C127.473 24.1229 127.663 23.9741 127.88 23.8734C128.096 23.7728 128.333 23.723 128.571 23.728C128.79 23.728 129.011 23.7802 129.232 23.8847C129.454 23.9891 129.613 24.1377 129.711 24.3305L129.749 24.4149L129.733 23.6668L129.718 22.6224V21.9586L129.695 21.7678L130.032 21.7899L130.399 21.7678L130.361 22.2478V25.1469L130.338 26.4443L130.361 26.9163V27.2758L130.399 27.4515L130.071 27.4355L129.741 27.4515L129.768 27.2909ZM127.599 25.5737V25.7876C127.599 25.8639 127.61 25.9714 127.63 26.1089C127.645 26.2766 127.686 26.4343 127.753 26.5809C127.915 26.9987 128.203 27.2065 128.617 27.2065C129.06 27.2065 129.376 26.9836 129.565 26.5357C129.668 26.2917 129.718 25.9734 129.718 25.5817C129.718 25.1238 129.626 24.7553 129.443 24.4761C129.26 24.196 129.01 24.0564 128.693 24.0564C127.964 24.0564 127.599 24.5625 127.599 25.5747V25.5737Z" fill="#231F20"/>
</svg>
