<svg width="21" height="21" viewBox="0 0 21 21" fill="none" xmlns="http://www.w3.org/2000/svg">
<path d="M14.9613 11.6869C14.1512 11.0494 13.3813 10.3941 12.8687 9.8814C12.2021 9.2149 11.6082 8.5689 11.0922 7.95367C11.8972 5.46623 12.2501 4.18368 12.2501 3.50003C12.2501 0.595628 11.2007 0 9.62505 0C8.42789 0 7.00005 0.622043 7.00005 3.58378C7.00005 4.88947 7.71529 6.47456 9.13287 8.31682C8.78596 9.37552 8.37834 10.5966 7.92036 11.9732C7.69986 12.6337 7.46066 13.2455 7.20768 13.8112C7.00178 13.9027 6.80179 13.9958 6.60868 14.0923C5.91314 14.4401 5.25263 14.7528 4.63993 15.0434C1.8457 16.3661 0 17.2412 0 18.9689C0 20.2233 1.36295 21 2.625 21C4.25193 21 6.7086 18.827 8.50303 15.1663C10.3658 14.4315 12.6815 13.8872 14.5093 13.5462C15.9739 14.6724 17.5914 15.75 18.375 15.75C20.5446 15.75 21 14.4956 21 13.4437C21 11.3749 18.6364 11.3749 17.5 11.3749C17.1471 11.375 16.2004 11.4793 14.9613 11.6869ZM2.625 19.25C2.1251 19.25 1.78672 19.0142 1.74997 18.9689C1.74997 18.3485 3.59994 17.4718 5.38929 16.6242C5.5029 16.5704 5.61832 16.5165 5.73538 16.461C4.42116 18.3666 3.12145 19.25 2.625 19.25ZM8.75003 3.58378C8.75003 1.75006 9.31916 1.75005 9.62505 1.75005C10.2437 1.75005 10.5001 1.75005 10.5001 3.50003C10.5001 3.86917 10.254 4.79202 9.80364 6.23273C9.11654 5.17486 8.75003 4.26825 8.75003 3.58378ZM9.4208 12.9883C9.47551 12.8363 9.5285 12.6824 9.57977 12.5269C9.90445 11.5528 10.1967 10.6778 10.4573 9.88993C10.8205 10.2898 11.2119 10.6992 11.6315 11.1187C11.7955 11.2827 12.2022 11.6519 12.744 12.1141C11.6655 12.3491 10.518 12.6405 9.4208 12.9883ZM19.25 13.4438C19.25 13.8369 19.25 14 18.4382 14.0052C18.1999 13.9539 17.6487 13.6292 16.9685 13.1661C17.2154 13.1388 17.3974 13.1251 17.5 13.1251C18.7929 13.1251 19.1595 13.2515 19.25 13.4438Z" fill="#F46A6A"/>
</svg>
