<svg width="16" height="21" viewBox="0 0 16 21" fill="none" xmlns="http://www.w3.org/2000/svg">
<mask id="path-1-outside-1" maskUnits="userSpaceOnUse" x="0" y="0" width="16" height="21" fill="black">
<rect fill="white" width="16" height="21"/>
<path d="M14.2783 17.0311C13.8798 17.0311 13.5567 17.3634 13.5567 17.7733C13.5567 17.9802 13.4885 18.1543 13.3541 18.2909C13.213 18.4341 13.0083 18.5171 12.8081 18.5155C12.6105 18.5129 12.4502 18.4437 12.3178 18.3038L8.51718 14.2869C8.38132 14.1434 8.19478 14.0624 8 14.0624C7.80523 14.0624 7.61868 14.1434 7.48283 14.2869L3.68215 18.3038C3.55077 18.4427 3.38923 18.5119 3.18832 18.5156C2.98589 18.5198 2.78213 18.4369 2.64202 18.2953C2.51014 18.162 2.44328 17.9907 2.44328 17.7862V3.96871C2.44328 3.15023 3.09075 2.48434 3.88659 2.48434H12.1134C12.9092 2.48434 13.5567 3.15023 13.5567 3.96871V14.0995C13.5567 14.5094 13.8798 14.8416 14.2783 14.8416C14.6769 14.8416 15 14.5094 15 14.0995V3.96871C15 2.33178 13.7051 1 12.1134 1H3.88659C2.29491 1 1 2.33178 1 3.96871V17.7862C1 18.3864 1.22393 18.9432 1.63051 19.3541C2.03803 19.7658 2.59912 20 3.17529 20C3.1881 20 3.20095 19.9999 3.21375 19.9997C3.79797 19.9891 4.3176 19.7606 4.71653 19.339L8 15.8687L11.2835 19.339C11.6853 19.7637 12.2062 19.9921 12.7898 19.9997C13.3757 20.0059 13.9522 19.7695 14.3682 19.3471C14.7756 18.9333 15 18.3744 15 17.7733C15 17.3634 14.6769 17.0311 14.2783 17.0311Z"/>
</mask>
<path d="M14.2783 17.0311C13.8798 17.0311 13.5567 17.3634 13.5567 17.7733C13.5567 17.9802 13.4885 18.1543 13.3541 18.2909C13.213 18.4341 13.0083 18.5171 12.8081 18.5155C12.6105 18.5129 12.4502 18.4437 12.3178 18.3038L8.51718 14.2869C8.38132 14.1434 8.19478 14.0624 8 14.0624C7.80523 14.0624 7.61868 14.1434 7.48283 14.2869L3.68215 18.3038C3.55077 18.4427 3.38923 18.5119 3.18832 18.5156C2.98589 18.5198 2.78213 18.4369 2.64202 18.2953C2.51014 18.162 2.44328 17.9907 2.44328 17.7862V3.96871C2.44328 3.15023 3.09075 2.48434 3.88659 2.48434H12.1134C12.9092 2.48434 13.5567 3.15023 13.5567 3.96871V14.0995C13.5567 14.5094 13.8798 14.8416 14.2783 14.8416C14.6769 14.8416 15 14.5094 15 14.0995V3.96871C15 2.33178 13.7051 1 12.1134 1H3.88659C2.29491 1 1 2.33178 1 3.96871V17.7862C1 18.3864 1.22393 18.9432 1.63051 19.3541C2.03803 19.7658 2.59912 20 3.17529 20C3.1881 20 3.20095 19.9999 3.21375 19.9997C3.79797 19.9891 4.3176 19.7606 4.71653 19.339L8 15.8687L11.2835 19.339C11.6853 19.7637 12.2062 19.9921 12.7898 19.9997C13.3757 20.0059 13.9522 19.7695 14.3682 19.3471C14.7756 18.9333 15 18.3744 15 17.7733C15 17.3634 14.6769 17.0311 14.2783 17.0311Z" fill="#3E3E3E"/>
<path d="M14.2783 17.0311C13.8798 17.0311 13.5567 17.3634 13.5567 17.7733C13.5567 17.9802 13.4885 18.1543 13.3541 18.2909C13.213 18.4341 13.0083 18.5171 12.8081 18.5155C12.6105 18.5129 12.4502 18.4437 12.3178 18.3038L8.51718 14.2869C8.38132 14.1434 8.19478 14.0624 8 14.0624C7.80523 14.0624 7.61868 14.1434 7.48283 14.2869L3.68215 18.3038C3.55077 18.4427 3.38923 18.5119 3.18832 18.5156C2.98589 18.5198 2.78213 18.4369 2.64202 18.2953C2.51014 18.162 2.44328 17.9907 2.44328 17.7862V3.96871C2.44328 3.15023 3.09075 2.48434 3.88659 2.48434H12.1134C12.9092 2.48434 13.5567 3.15023 13.5567 3.96871V14.0995C13.5567 14.5094 13.8798 14.8416 14.2783 14.8416C14.6769 14.8416 15 14.5094 15 14.0995V3.96871C15 2.33178 13.7051 1 12.1134 1H3.88659C2.29491 1 1 2.33178 1 3.96871V17.7862C1 18.3864 1.22393 18.9432 1.63051 19.3541C2.03803 19.7658 2.59912 20 3.17529 20C3.1881 20 3.20095 19.9999 3.21375 19.9997C3.79797 19.9891 4.3176 19.7606 4.71653 19.339L8 15.8687L11.2835 19.339C11.6853 19.7637 12.2062 19.9921 12.7898 19.9997C13.3757 20.0059 13.9522 19.7695 14.3682 19.3471C14.7756 18.9333 15 18.3744 15 17.7733C15 17.3634 14.6769 17.0311 14.2783 17.0311Z" stroke="#3E3E3E" stroke-width="0.6" mask="url(#path-1-outside-1)"/>
</svg>
