<svg width="16" height="21" viewBox="0 0 16 21" fill="none" xmlns="http://www.w3.org/2000/svg">
<path d="M3.68215 18.3038C3.55077 18.4427 3.38923 18.5119 3.18832 18.5156M3.68215 18.3038L7.48283 14.2869C7.61868 14.1434 7.80523 14.0624 8 14.0624C8.19478 14.0624 8.38132 14.1434 8.51718 14.2869L12.3178 18.3038M3.68215 18.3038L3.57319 18.2007L7.37387 14.1838C7.53758 14.0108 7.76332 13.9124 8 13.9124C8.23668 13.9124 8.46243 14.0108 8.62613 14.1838L12.4268 18.2007L12.3178 18.3038M3.68215 18.3038L3.57318 18.2007C3.47104 18.3087 3.34855 18.3626 3.1856 18.3656L3.18516 18.3656C3.02374 18.369 2.85972 18.302 2.74865 18.1898L2.74864 18.1898C2.64721 18.0873 2.59328 17.9552 2.59328 17.7862V3.96871C2.59328 3.22908 3.17753 2.63434 3.88659 2.63434H12.1134C12.8224 2.63434 13.4067 3.22908 13.4067 3.96871V14.0995C13.4067 14.5882 13.793 14.9916 14.2783 14.9916C14.7637 14.9916 15.15 14.5882 15.15 14.0995V3.96871C15.15 2.25293 13.7918 0.85 12.1134 0.85H3.88659C2.20812 0.85 0.85 2.25293 0.85 3.96871V17.7862C0.85 18.4242 1.08835 19.0195 1.52389 19.4596C1.9595 19.8997 2.55894 20.15 3.17529 20.15C3.18896 20.15 3.20268 20.1499 3.21637 20.1496L3.21647 20.1496C3.84066 20.1383 4.39867 19.8932 4.8255 19.4421L8 16.087L11.1745 19.4421C11.6041 19.8961 12.1636 20.1416 12.7879 20.1497L12.7882 20.1497C13.4148 20.1564 14.0305 19.9038 14.475 19.4523C14.9112 19.0094 15.15 18.4122 15.15 17.7733C15.15 17.2845 14.7637 16.8811 14.2783 16.8811C13.793 16.8811 13.4067 17.2845 13.4067 17.7733C13.4067 17.9443 13.3517 18.0795 13.2472 18.1856L13.3541 18.2909L13.2472 18.1856C13.1352 18.2994 12.9698 18.3668 12.8094 18.3655C12.6515 18.3633 12.5303 18.3102 12.4268 18.2007L12.3178 18.3038M3.18832 18.5156L12.8081 18.5155C12.6105 18.5129 12.4502 18.4437 12.3178 18.3038M3.18832 18.5156C2.98589 18.5198 2.78213 18.4369 2.64202 18.2953L3.18832 18.5156Z" fill="#3E3E3E" stroke="#3E3E3E" stroke-width="0.3"/>
</svg>
