<svg width="23" height="22" viewBox="0 0 23 22" fill="none" xmlns="http://www.w3.org/2000/svg">
<path d="M1.67322 2H7.6701C8.73042 2 9.74731 2.42143 10.4971 3.17157C11.2468 3.92172 11.668 4.93913 11.668 6V20C11.668 19.2044 11.3521 18.4413 10.7898 17.8787C10.2275 17.3161 9.46482 17 8.66959 17H1.67322V2Z" stroke="#247D46" stroke-width="2.3" stroke-linecap="round" stroke-linejoin="round"/>
<path d="M21.6628 2H15.666C14.6056 2 13.5888 2.42143 12.839 3.17157C12.0892 3.92172 11.668 4.93913 11.668 6V20C11.668 19.2044 11.9839 18.4413 12.5463 17.8787C13.1086 17.3161 13.8712 17 14.6665 17H21.6628V2Z" stroke="#247D46" stroke-width="2.3" stroke-linecap="round" stroke-linejoin="round"/>
</svg>
