<svg width="79" height="93" viewBox="0 0 79 93" fill="none" xmlns="http://www.w3.org/2000/svg">
<path d="M23.0176 24.8198C23.4541 24.8198 23.8921 24.6625 24.239 24.3437C24.2637 24.3212 24.2898 24.2958 24.3131 24.2718C25.0183 23.5673 25.0183 22.4241 24.3131 21.7189C23.6079 21.0136 22.4654 21.0136 21.7602 21.7189C21.758 21.721 21.7545 21.7238 21.751 21.7273C21.0599 22.4065 21.0274 23.5172 21.6875 24.2358C22.0437 24.6237 22.5303 24.8198 23.0176 24.8198Z" fill="#3D8C5B"/>
<path d="M39.3579 14.4434C35.4142 14.4434 31.4854 15.3898 27.9959 17.1796C27.1088 17.6345 26.759 18.7227 27.2138 19.6099C27.6687 20.497 28.7569 20.8475 29.6441 20.3927C32.6688 18.8412 35.9368 18.0541 39.3579 18.0541C51.1042 18.0541 60.6614 27.6114 60.6614 39.3584C60.6614 43.692 59.3673 47.862 56.9202 51.4185C56.5386 51.9735 56.1479 52.5356 55.7537 53.104C51.6585 59.0025 47.0646 65.6218 46.3241 72.2157H32.3909C31.6504 65.6218 27.0566 59.0025 22.9613 53.104C22.5664 52.5356 22.1764 51.9735 21.7942 51.4185C19.3477 47.862 18.0536 43.692 18.0536 39.3584C18.0536 35.3922 19.151 31.5226 21.2258 28.1678C21.7504 27.3201 21.4881 26.208 20.6404 25.6833C19.792 25.1579 18.6799 25.4209 18.1552 26.2686C15.7264 30.1939 14.4429 34.7201 14.4429 39.3584C14.4429 44.4254 15.9563 49.3042 18.8202 53.4658C19.2046 54.025 19.5981 54.5906 19.9958 55.1632C23.8605 60.7289 28.2005 66.9829 28.8105 72.6903C27.5672 73.3617 26.7202 74.6776 26.7202 76.1875V82.6869C26.7202 84.2271 27.6017 85.5642 28.8859 86.2229V87.742C28.8859 90.3302 30.9918 92.436 33.5799 92.436H45.1351C47.7233 92.436 49.8291 90.3302 49.8291 87.742V86.2229C51.1133 85.5642 51.9949 84.2271 51.9949 82.6869V76.1875C51.9949 74.6776 51.1479 73.3617 49.9046 72.6903C50.5153 66.9829 54.8553 60.7289 58.7192 55.1632C59.117 54.5906 59.5105 54.0243 59.8948 53.4658C62.7588 49.3042 64.2722 44.4261 64.2722 39.3584C64.2722 25.6205 53.0957 14.4434 39.3579 14.4434ZM48.3841 76.1875V77.6318H42.7818C41.7846 77.6318 40.9764 78.44 40.9764 79.4372C40.9764 80.4337 41.7846 81.2426 42.7818 81.2426H48.3841V82.6869C48.3841 82.8829 48.2191 83.048 48.0237 83.048H30.6913C30.496 83.048 30.331 82.8829 30.331 82.6869V76.1875C30.331 75.9915 30.496 75.8264 30.6913 75.8264H48.0237C48.2191 75.8264 48.3841 75.9915 48.3841 76.1875ZM45.1351 88.8252H33.5799C32.9932 88.8252 32.4967 88.3294 32.4967 87.742V86.6587H46.2183V87.742C46.2183 88.3294 45.7219 88.8252 45.1351 88.8252Z" fill="#3D8C5B"/>
<path d="M39.3588 9.32993C40.3553 9.32993 41.1642 8.52103 41.1642 7.52454V1.80514C41.1642 0.807947 40.3553 -0.000244141 39.3588 -0.000244141C38.3616 -0.000244141 37.5534 0.807947 37.5534 1.80514V7.52454C37.5534 8.52103 38.3616 9.32993 39.3588 9.32993Z" fill="#3D8C5B"/>
<path d="M15.5729 18.1258C15.9256 18.4777 16.3875 18.6547 16.8494 18.6547C17.3113 18.6547 17.774 18.4777 18.1266 18.1258C18.8311 17.4206 18.8311 16.2774 18.1266 15.5722L14.0821 11.5284C13.3769 10.8239 12.2344 10.8239 11.5292 11.5284C10.8239 12.2336 10.8239 13.3768 11.5292 14.082L15.5729 18.1258Z" fill="#3D8C5B"/>
<path d="M7.52479 37.553H1.80538C0.808191 37.553 0 38.3612 0 39.3584C0 40.3549 0.808191 41.1637 1.80538 41.1637H7.52479C8.52127 41.1637 9.33017 40.3549 9.33017 39.3584C9.33017 38.3612 8.52127 37.553 7.52479 37.553Z" fill="#3D8C5B" fill-opacity="0.5"/>
<path d="M15.5729 60.5909L11.5292 64.6347C10.8239 65.3392 10.8239 66.4824 11.5292 67.1876C11.8818 67.5403 12.3437 67.7166 12.8056 67.7166C13.2676 67.7166 13.7295 67.5403 14.0821 67.1876L18.1266 63.1439C18.8311 62.4393 18.8311 61.2962 18.1266 60.5909C17.4213 59.8857 16.2782 59.8857 15.5729 60.5909Z" fill="#3D8C5B" fill-opacity="0.5"/>
<path d="M63.1428 60.5909C62.4376 59.8857 61.2951 59.8857 60.5892 60.5909C59.8847 61.2955 59.8847 62.4386 60.5892 63.1439L64.633 67.1876C64.9856 67.5403 65.4482 67.7166 65.9101 67.7166C66.3721 67.7166 66.834 67.5403 67.1866 67.1876C67.8911 66.4831 67.8911 65.3399 67.1866 64.6347L63.1428 60.5909Z" fill="#3D8C5B" fill-opacity="0.5"/>
<path d="M76.9093 37.553H71.1906C70.1934 37.553 69.3853 38.3612 69.3853 39.3584C69.3853 40.3549 70.1934 41.1637 71.1906 41.1637H76.9093C77.9065 41.1637 78.7147 40.3549 78.7147 39.3584C78.7147 38.3612 77.9065 37.553 76.9093 37.553Z" fill="#3D8C5B" fill-opacity="0.5"/>
<path d="M64.6337 11.5275L60.5892 15.5712C59.8847 16.2765 59.8847 17.4196 60.5892 18.1249C60.9418 18.4768 61.4037 18.6538 61.8664 18.6538C62.3283 18.6538 62.7902 18.4768 63.1428 18.1249L67.1866 14.0811C67.8911 13.3759 67.8911 12.2327 67.1866 11.5275C66.4814 10.8222 65.3389 10.8222 64.6337 11.5275Z" fill="#3D8C5B"/>
<path d="M37.5499 81.2426H37.5922C38.5894 81.2426 39.3976 80.4344 39.3976 79.4372C39.3976 78.4407 38.5894 77.6318 37.5922 77.6318H37.5499C36.5527 77.6318 35.7445 78.4407 35.7445 79.4372C35.7445 80.4344 36.5527 81.2426 37.5499 81.2426Z" fill="#3D8C5B" fill-opacity="0.5"/>
<path d="M40.6354 50.1769C39.9302 49.4716 38.787 49.4716 38.0818 50.1769C37.3773 50.8821 37.3773 52.0253 38.0818 52.7298C38.787 53.435 39.9302 53.435 40.6354 52.7298C41.3407 52.0253 41.3407 50.8821 40.6354 50.1769Z" fill="#3D8C5B" fill-opacity="0.5"/>
<path d="M49.5709 43.0475C50.0329 43.0475 50.4948 42.8712 50.8474 42.5186C51.5526 41.8133 51.5526 40.6702 50.8474 39.9649C44.5123 33.6299 34.204 33.6299 27.8689 39.9649C27.1637 40.6702 27.1637 41.8133 27.8689 42.5186C28.5742 43.2231 29.7166 43.2231 30.4219 42.5186C35.3493 37.5911 43.367 37.5911 48.2945 42.5186C48.6471 42.8712 49.109 43.0475 49.5709 43.0475Z" fill="#3D8C5B" fill-opacity="0.5"/>
<path d="M44.4655 48.152C44.9282 48.152 45.3894 47.975 45.742 47.6231C46.4472 46.9179 46.4472 45.7747 45.742 45.0695C42.2222 41.5504 36.4958 41.5504 32.976 45.0695C32.2714 45.7747 32.2714 46.9179 32.976 47.6231C33.6812 48.3276 34.8244 48.3276 35.5296 47.6231C37.641 45.511 41.0776 45.511 43.1891 47.6231C43.5417 47.975 44.0036 48.152 44.4655 48.152Z" fill="#3D8C5B" fill-opacity="0.5"/>
</svg>
