<svg width="16" height="14" viewBox="0 0 16 14" fill="none" xmlns="http://www.w3.org/2000/svg">
<path d="M10.6374 10.2449C10.4057 10.0151 10.0316 10.0166 9.80187 10.2483L8.12391 11.9402V6.14454C8.12391 5.81823 7.8594 5.55371 7.53308 5.55371C7.20676 5.55371 6.94225 5.81823 6.94225 6.14454V11.8806L5.32337 10.2483C5.0936 10.0167 4.71951 10.0151 4.48782 10.2449C4.25615 10.4747 4.25459 10.8488 4.48439 11.0805L6.30575 12.9168C6.64119 13.255 7.08756 13.4413 7.56262 13.4413C8.03768 13.4413 8.48405 13.255 8.81953 12.9168L10.6409 11.0805C10.8706 10.8488 10.8691 10.4747 10.6374 10.2449Z" fill="#888888"/>
<path d="M13.6482 4.42077V4.02716C13.6482 1.80658 11.8416 0 9.62103 0C8.65408 0 7.71912 0.347881 6.98844 0.979598C6.50505 1.39749 6.13099 1.92141 5.89265 2.50368C5.52628 2.31644 5.1171 2.21562 4.69711 2.21562C3.24735 2.21562 2.06791 3.39506 2.06791 4.84481V5.38212C0.885597 5.64722 0 6.69648 0 7.94668C0 8.64897 0.265844 9.30757 0.748583 9.80112C1.23723 10.3008 1.89462 10.5759 2.59966 10.5759H2.80645C3.13276 10.5759 3.39728 10.3114 3.39728 9.98504C3.39728 9.65873 3.13276 9.39421 2.80645 9.39421H2.59966C1.80452 9.39421 1.18166 8.75839 1.18166 7.94668C1.18166 7.14849 1.84224 6.49914 2.65419 6.49914H2.65874C2.98506 6.49914 3.24957 6.23463 3.24957 5.90831V4.84481C3.24957 4.04663 3.89892 3.39728 4.69711 3.39728C5.11175 3.39728 5.50734 3.57606 5.78249 3.88779C5.93416 4.0596 6.1715 4.1282 6.3914 4.06382C6.61134 3.99945 6.7742 3.81373 6.8093 3.58726C7.02179 2.21585 8.23054 1.18166 9.621 1.18166C11.19 1.18166 12.4665 2.45815 12.4665 4.02716V4.75383C12.4665 4.97243 12.5873 5.1732 12.7804 5.27571C13.4979 5.65653 13.9436 6.39696 13.9436 7.20814C13.9436 8.235 13.2457 9.11144 12.2465 9.33944C11.9283 9.41206 11.7293 9.7288 11.8019 10.0469C11.8745 10.3651 12.1913 10.5642 12.5093 10.4915C13.2411 10.3245 13.9051 9.9093 14.379 9.3224C14.8602 8.72637 15.1253 7.97551 15.1253 7.20814C15.1253 6.08163 14.5675 5.04384 13.6482 4.42077Z" fill="#888888"/>
</svg>
