<svg width="64" height="64" viewBox="0 0 64 64" fill="none" xmlns="http://www.w3.org/2000/svg">
<path d="M0.990431 38.4941L0.990444 38.4941C2.45304 45.4873 6.31462 51.8501 11.8643 56.4111C17.4917 61.0359 24.6087 63.5828 31.9049 63.5828C49.3201 63.5828 63.4877 49.4152 63.4877 32C63.4877 14.5848 49.3201 0.417187 31.9049 0.417187C24.6182 0.417187 17.5084 2.95815 11.8847 7.57214C6.33857 12.1223 2.474 18.4726 1.00182 25.4532L1.0018 25.4533C0.805898 26.3843 1.40165 27.2985 2.3327 27.495L2.33273 27.4951C3.26459 27.6917 4.17807 27.0951 4.37462 26.1642L4.37463 26.1641C5.68509 19.9486 9.12883 14.2922 14.0707 10.2373L14.0707 10.2373C19.0794 6.12729 25.4134 3.86406 31.9049 3.86406C47.4192 3.86406 60.0408 16.4857 60.0408 32C60.0408 47.5143 47.4192 60.1359 31.9049 60.1359C25.4051 60.1359 19.0647 57.8674 14.053 53.7479L13.926 53.9024L14.0529 53.7479C9.10698 49.6836 5.6662 44.0154 4.36459 37.7886C4.17 36.8568 3.2564 36.2597 2.3248 36.4543L2.32467 36.4543C1.39303 36.6495 0.795876 37.5624 0.990431 38.4941Z" fill="white" stroke="white" stroke-width="0.4"/>
<path d="M22.7214 44.6493L22.7214 44.6493C21.6707 44.0268 21.0404 42.9374 21.0404 41.735V22.2647C21.0404 21.0623 21.6706 19.973 22.7214 19.3505L22.7214 44.6493ZM22.7214 44.6493C23.2797 44.9798 23.9113 45.1461 24.5432 45.1461C25.1347 45.1461 25.7266 45.0006 26.2602 44.7086L26.2603 44.7085L44.0309 34.9728C45.13 34.3709 45.8154 33.2329 45.8154 31.9999C45.8154 30.7669 45.13 29.6288 44.0309 29.0269L26.2603 19.2912L26.2603 19.2912M22.7214 44.6493L26.2603 19.2912M26.2603 19.2912C25.1575 18.6872 23.8022 18.7098 22.7214 19.3505L26.2603 19.2912ZM24.4873 41.6888V22.311C24.4918 22.3088 24.4976 22.3063 24.5044 22.3041C24.5167 22.3001 24.5301 22.2975 24.5437 22.2975C24.5592 22.2975 24.5791 22.3007 24.6034 22.3142L24.6042 22.3146L42.2839 31.9999L24.6044 41.6856C24.5722 41.7032 24.5473 41.7041 24.5282 41.7015C24.5119 41.6992 24.4975 41.6937 24.4873 41.6888Z" fill="white" stroke="white" stroke-width="0.4"/>
<path d="M2.1899 33.3572C1.44034 33.3572 0.832031 32.7494 0.832031 32.0001C0.832031 31.25 1.43892 30.6429 2.18772 30.6429H2.1899C2.93895 30.6429 3.54632 31.2503 3.54632 32.0001C3.54632 32.7499 2.93895 33.3572 2.1899 33.3572Z" fill="white" stroke="white"/>
</svg>
