<svg width="64" height="64" viewBox="0 0 64 64" fill="none" xmlns="http://www.w3.org/2000/svg">
<mask id="path-1-outside-1" maskUnits="userSpaceOnUse" x="0.153717" y="-0.382812" width="64" height="65" fill="black">
<rect fill="white" x="0.153717" y="-0.382812" width="64" height="65"/>
<path d="M31.9049 63.3828C24.6549 63.3828 17.5828 60.8519 11.9913 56.2566C6.47658 51.7243 2.63942 45.4015 1.18621 38.4532C1.01423 37.6296 1.54207 36.8226 2.36568 36.6501C3.18929 36.4781 3.99683 37.0059 4.16881 37.8295C5.4798 44.1012 8.94503 49.8093 13.926 53.9024C18.9735 58.0514 25.3589 60.3359 31.9049 60.3359C47.5297 60.3359 60.2408 47.6248 60.2408 32C60.2408 16.3752 47.5297 3.66406 31.9049 3.66406C25.3672 3.66406 18.9884 5.94327 13.9438 10.0827C8.96705 14.1663 5.49885 19.8625 4.17893 26.1229C4.00516 26.9459 3.19762 27.4731 2.37401 27.2994C1.551 27.1256 1.02434 26.3175 1.19751 25.4944C2.66025 18.5586 6.50039 12.2483 12.0115 7.72676C17.5995 3.14217 24.6644 0.617188 31.9049 0.617188C49.2096 0.617188 63.2877 14.6953 63.2877 32C63.2877 49.3047 49.2096 63.3828 31.9049 63.3828Z"/>
</mask>
<path d="M31.9049 63.3828C24.6549 63.3828 17.5828 60.8519 11.9913 56.2566C6.47658 51.7243 2.63942 45.4015 1.18621 38.4532C1.01423 37.6296 1.54207 36.8226 2.36568 36.6501C3.18929 36.4781 3.99683 37.0059 4.16881 37.8295C5.4798 44.1012 8.94503 49.8093 13.926 53.9024C18.9735 58.0514 25.3589 60.3359 31.9049 60.3359C47.5297 60.3359 60.2408 47.6248 60.2408 32C60.2408 16.3752 47.5297 3.66406 31.9049 3.66406C25.3672 3.66406 18.9884 5.94327 13.9438 10.0827C8.96705 14.1663 5.49885 19.8625 4.17893 26.1229C4.00516 26.9459 3.19762 27.4731 2.37401 27.2994C1.551 27.1256 1.02434 26.3175 1.19751 25.4944C2.66025 18.5586 6.50039 12.2483 12.0115 7.72676C17.5995 3.14217 24.6644 0.617188 31.9049 0.617188C49.2096 0.617188 63.2877 14.6953 63.2877 32C63.2877 49.3047 49.2096 63.3828 31.9049 63.3828Z" fill="white"/>
<path d="M31.9049 63.3828C24.6549 63.3828 17.5828 60.8519 11.9913 56.2566C6.47658 51.7243 2.63942 45.4015 1.18621 38.4532C1.01423 37.6296 1.54207 36.8226 2.36568 36.6501C3.18929 36.4781 3.99683 37.0059 4.16881 37.8295C5.4798 44.1012 8.94503 49.8093 13.926 53.9024C18.9735 58.0514 25.3589 60.3359 31.9049 60.3359C47.5297 60.3359 60.2408 47.6248 60.2408 32C60.2408 16.3752 47.5297 3.66406 31.9049 3.66406C25.3672 3.66406 18.9884 5.94327 13.9438 10.0827C8.96705 14.1663 5.49885 19.8625 4.17893 26.1229C4.00516 26.9459 3.19762 27.4731 2.37401 27.2994C1.551 27.1256 1.02434 26.3175 1.19751 25.4944C2.66025 18.5586 6.50039 12.2483 12.0115 7.72676C17.5995 3.14217 24.6644 0.617188 31.9049 0.617188C49.2096 0.617188 63.2877 14.6953 63.2877 32C63.2877 49.3047 49.2096 63.3828 31.9049 63.3828Z" stroke="white" stroke-width="0.8" mask="url(#path-1-outside-1)"/>
<mask id="path-2-outside-2" maskUnits="userSpaceOnUse" x="20.2404" y="18.0536" width="26" height="28" fill="black">
<rect fill="white" x="20.2404" y="18.0536" width="26" height="28"/>
<path d="M24.5432 44.9461C23.9463 44.9461 23.35 44.789 22.8233 44.4772C21.8319 43.8898 21.2404 42.8651 21.2404 41.735V22.2647C21.2404 21.1347 21.8319 20.1099 22.8233 19.5226C23.8433 18.9179 25.1234 18.8965 26.1642 19.4666L43.9348 29.2023C44.9715 29.7701 45.6154 30.8418 45.6154 31.9999C45.6154 33.1579 44.9715 34.2297 43.9348 34.7974L26.1642 44.5331C25.6607 44.8087 25.1019 44.9461 24.5432 44.9461ZM24.5437 22.0975C24.467 22.0975 24.4057 22.1261 24.3759 22.1439C24.2873 22.1963 24.2873 22.2457 24.2873 22.2647V41.7356C24.2873 41.754 24.2873 41.8034 24.3759 41.8558C24.4241 41.8844 24.5521 41.9421 24.7003 41.8612L42.4709 32.1254C42.5584 32.0778 42.5685 32.0308 42.5685 31.9999C42.5685 31.9689 42.5584 31.9225 42.4709 31.8743L24.7003 22.1392C24.6443 22.1082 24.5908 22.0975 24.5437 22.0975Z"/>
</mask>
<path d="M24.5432 44.9461C23.9463 44.9461 23.35 44.789 22.8233 44.4772C21.8319 43.8898 21.2404 42.8651 21.2404 41.735V22.2647C21.2404 21.1347 21.8319 20.1099 22.8233 19.5226C23.8433 18.9179 25.1234 18.8965 26.1642 19.4666L43.9348 29.2023C44.9715 29.7701 45.6154 30.8418 45.6154 31.9999C45.6154 33.1579 44.9715 34.2297 43.9348 34.7974L26.1642 44.5331C25.6607 44.8087 25.1019 44.9461 24.5432 44.9461ZM24.5437 22.0975C24.467 22.0975 24.4057 22.1261 24.3759 22.1439C24.2873 22.1963 24.2873 22.2457 24.2873 22.2647V41.7356C24.2873 41.754 24.2873 41.8034 24.3759 41.8558C24.4241 41.8844 24.5521 41.9421 24.7003 41.8612L42.4709 32.1254C42.5584 32.0778 42.5685 32.0308 42.5685 31.9999C42.5685 31.9689 42.5584 31.9225 42.4709 31.8743L24.7003 22.1392C24.6443 22.1082 24.5908 22.0975 24.5437 22.0975Z" fill="white"/>
<path d="M24.5432 44.9461C23.9463 44.9461 23.35 44.789 22.8233 44.4772C21.8319 43.8898 21.2404 42.8651 21.2404 41.735V22.2647C21.2404 21.1347 21.8319 20.1099 22.8233 19.5226C23.8433 18.9179 25.1234 18.8965 26.1642 19.4666L43.9348 29.2023C44.9715 29.7701 45.6154 30.8418 45.6154 31.9999C45.6154 33.1579 44.9715 34.2297 43.9348 34.7974L26.1642 44.5331C25.6607 44.8087 25.1019 44.9461 24.5432 44.9461ZM24.5437 22.0975C24.467 22.0975 24.4057 22.1261 24.3759 22.1439C24.2873 22.1963 24.2873 22.2457 24.2873 22.2647V41.7356C24.2873 41.754 24.2873 41.8034 24.3759 41.8558C24.4241 41.8844 24.5521 41.9421 24.7003 41.8612L42.4709 32.1254C42.5584 32.0778 42.5685 32.0308 42.5685 31.9999C42.5685 31.9689 42.5584 31.9225 42.4709 31.8743L24.7003 22.1392C24.6443 22.1082 24.5908 22.0975 24.5437 22.0975Z" stroke="white" stroke-width="0.8" mask="url(#path-2-outside-2)"/>
<mask id="path-3-inside-3" fill="white">
<path d="M2.1899 33.8572C1.16452 33.8572 0.332031 33.0259 0.332031 32.0001C0.332031 30.9743 1.16234 30.1429 2.18772 30.1429H2.1899C3.21528 30.1429 4.04632 30.9743 4.04632 32.0001C4.04632 33.0259 3.21528 33.8572 2.1899 33.8572Z"/>
</mask>
<path d="M2.1899 33.8572C1.16452 33.8572 0.332031 33.0259 0.332031 32.0001C0.332031 30.9743 1.16234 30.1429 2.18772 30.1429H2.1899C3.21528 30.1429 4.04632 30.9743 4.04632 32.0001C4.04632 33.0259 3.21528 33.8572 2.1899 33.8572Z" fill="white" stroke="white" stroke-width="2" mask="url(#path-3-inside-3)"/>
</svg>
