<svg width="15" height="14" viewBox="0 0 15 14" fill="none" xmlns="http://www.w3.org/2000/svg">
<path d="M7.02463 0.594604C7.17887 0.329382 7.56196 0.329382 7.7162 0.594604L9.69542 3.99806C9.7519 4.09518 9.84662 4.16408 9.95642 4.18789L13.8008 5.02169C14.1002 5.08662 14.2185 5.45026 14.0145 5.67888L11.393 8.61741C11.3183 8.70112 11.2822 8.81233 11.2935 8.92393L11.6898 12.8439C11.7206 13.149 11.4108 13.3739 11.1303 13.2501L7.53193 11.6619C7.42904 11.6165 7.31179 11.6165 7.2089 11.6619L3.61053 13.2501C3.33 13.3739 3.02021 13.149 3.05105 12.8439L3.44732 8.92393C3.45861 8.81233 3.42251 8.70112 3.34784 8.61741L0.726315 5.67888C0.522362 5.45026 0.640608 5.08662 0.940017 5.02169L4.78441 4.18789C4.89421 4.16408 4.98893 4.09518 5.04541 3.99806L7.02463 0.594604Z" fill="#FFD333"/>
</svg>
