<svg width="20" height="19" viewBox="0 0 20 19" fill="none" xmlns="http://www.w3.org/2000/svg">
<path d="M9.17513 1.97249C9.57234 1.39292 10.4277 1.39292 10.8249 1.97249L12.6525 4.63916C13.0425 5.20835 13.6169 5.62567 14.2788 5.82077L17.3797 6.73487C18.0537 6.93353 18.318 7.747 17.8895 8.30386L15.9181 10.866C15.4973 11.4129 15.2779 12.0882 15.2969 12.7779L15.3858 16.0095C15.4051 16.7119 14.7131 17.2146 14.0511 16.9792L11.0051 15.8961C10.355 15.6649 9.64501 15.6649 8.99486 15.8961L5.94888 16.9792C5.28687 17.2146 4.5949 16.7119 4.61422 16.0095L4.7031 12.7779C4.72207 12.0882 4.50267 11.4129 4.08188 10.866L2.11049 8.30386C1.68203 7.747 1.94634 6.93353 2.62029 6.73486L5.72119 5.82077C6.38307 5.62566 6.95745 5.20835 7.34755 4.63916L9.17513 1.97249Z" stroke="#888888" stroke-width="2"/>
</svg>
