<svg width="25" height="21" viewBox="0 0 25 21" fill="none" xmlns="http://www.w3.org/2000/svg">
<path d="M17.1977 18.9999V17.111C17.1977 16.1091 16.7999 15.1482 16.0918 14.4397C15.3837 13.7313 14.4233 13.3333 13.4219 13.3333H5.87029C4.86888 13.3333 3.90849 13.7313 3.20039 14.4397C2.49229 15.1482 2.09448 16.1091 2.09448 17.111V18.9999" stroke="#247D46" stroke-width="2.3" stroke-linecap="round" stroke-linejoin="round"/>
<path d="M9.64621 9.55556C11.7315 9.55556 13.422 7.86419 13.422 5.77778C13.422 3.69137 11.7315 2 9.64621 2C7.5609 2 5.87042 3.69137 5.87042 5.77778C5.87042 7.86419 7.5609 9.55556 9.64621 9.55556Z" stroke="#247D46" stroke-width="2.3" stroke-linecap="round" stroke-linejoin="round"/>
<path d="M22.8615 18.9999V17.1111C22.8608 16.274 22.5824 15.4609 22.0698 14.7994C21.5573 14.1378 20.8396 13.6653 20.0296 13.4561" stroke="#247D46" stroke-width="2.3" stroke-linecap="round" stroke-linejoin="round"/>
<path d="M16.2537 2.1228C17.0659 2.33086 17.7858 2.80346 18.2999 3.4661C18.8139 4.12873 19.093 4.9437 19.093 5.78252C19.093 6.62135 18.8139 7.43632 18.2999 8.09895C17.7858 8.76158 17.0659 9.23418 16.2537 9.44225" stroke="#247D46" stroke-width="2.3" stroke-linecap="round" stroke-linejoin="round"/>
</svg>
