<svg width="34" height="38" viewBox="0 0 34 38" fill="none" xmlns="http://www.w3.org/2000/svg">
<path d="M20.1819 4.20914C20.2753 3.43335 19.843 2.68966 19.1227 2.3868C18.4024 2.08394 17.5686 2.2953 17.0796 2.90473L2.63513 20.9047C2.2138 21.4298 2.13099 22.1499 2.42215 22.7569C2.71331 23.3639 3.32682 23.75 4 23.75H15.0267L13.8181 33.7909C13.7247 34.5667 14.157 35.3103 14.8773 35.6132C15.5976 35.9161 16.4314 35.7047 16.9204 35.0953L31.3649 17.0953C31.7862 16.5702 31.869 15.8501 31.5779 15.2431C31.2867 14.6361 30.6732 14.25 30 14.25H18.9733L20.1819 4.20914Z" stroke="#454545" stroke-width="3.5" stroke-linecap="round" stroke-linejoin="round"/>
</svg>
