<svg width="103" height="21" viewBox="0 0 103 21" fill="none" xmlns="http://www.w3.org/2000/svg">
<path d="M97.9921 2.61543C97.9921 1.43364 98.9243 0.464964 100.066 0.464964C100.617 0.464964 101.131 0.697447 101.53 1.08492C101.93 1.49176 102.139 2.03422 102.139 2.59605C102.139 3.15788 101.93 3.70034 101.53 4.10719C101.131 4.51403 100.617 4.74651 100.066 4.74651C98.9243 4.74651 97.9921 3.79721 97.9921 2.61543ZM97.8209 2.61543C97.8209 3.89408 98.8292 4.94025 100.085 4.94025C100.693 4.94025 101.245 4.70777 101.664 4.26217C102.082 3.81658 102.329 3.23538 102.329 2.61543C102.329 1.99547 102.101 1.41427 101.664 0.968676C101.226 0.523085 100.674 0.290603 100.085 0.290603C98.8292 0.290603 97.8209 1.33677 97.8209 2.61543ZM99.2286 3.99095H99.552V2.90603H100.275C100.389 2.90603 100.484 2.90603 100.56 2.94477C100.655 3.0029 100.712 3.11914 100.731 3.27412L100.77 3.70034C100.77 3.79721 100.77 3.85533 100.77 3.89408C100.789 3.93282 100.789 3.9522 100.808 3.97157H101.207V3.91345C101.15 3.89408 101.131 3.83596 101.112 3.75846C101.093 3.71972 101.093 3.64222 101.093 3.54535L101.074 3.216C101.074 3.06102 101.036 2.96415 100.998 2.90603C100.941 2.84791 100.865 2.78979 100.77 2.75104C100.884 2.69292 100.96 2.61543 101.017 2.51856C101.074 2.42169 101.093 2.30545 101.093 2.15046C101.093 1.85986 100.979 1.66612 100.77 1.54988C100.655 1.49176 100.503 1.47239 100.332 1.47239H99.2477L99.2286 3.99095ZM99.533 2.61543V1.74362H100.294C100.408 1.74362 100.503 1.76299 100.56 1.80174C100.674 1.85986 100.731 1.99547 100.731 2.16983C100.731 2.3442 100.693 2.46044 100.598 2.51856C100.522 2.57668 100.408 2.61543 100.256 2.61543H99.533ZM9.40082 5.81206L0.155518 20.6134H6.47124L15.3741 6.47076L9.40082 5.81206ZM47.4664 5.48271V0H29.4894C27.0354 0.154988 25.9701 1.35615 25.1711 2.20858C24.3151 3.11914 23.8395 5.03712 23.8395 5.03712V0.038747H14.2708C13.5479 0.038747 12.8631 0.348723 12.3494 1.08492C11.8168 1.80174 9.6291 5.48271 9.6291 5.48271H47.4664ZM96.3561 5.48271V0H77.1236C74.6886 0.154988 73.6043 1.35615 72.8053 2.20858C71.9493 3.11914 71.4737 5.03712 71.4737 5.03712V5.48271H96.3561ZM53.7821 0.0193735H48.3985V5.48271H53.7821V0.0193735ZM71.4166 0.0193735H66.0521V5.48271H71.4166V0.0193735ZM71.4166 7.45881L66.1282 7.12946V13.4646C66.1282 13.4646 66.1092 15.2857 64.378 15.2857H55.323C55.323 15.2857 53.7821 15.1501 53.7821 13.484V6.27702L48.4556 5.88955V15.5957C49.3116 20.2453 53.4397 20.6134 53.4397 20.6134C53.4397 20.6134 53.8582 20.6328 53.9343 20.6522H66.2043C66.2043 20.6522 71.4547 20.226 71.4547 15.0726L71.4166 7.45881ZM18.3608 20.6134H43.5095C47.8849 19.7222 48.3414 15.6538 48.3414 15.6538C48.5507 14.4526 48.4365 13.4646 48.4365 13.4646C48.3034 12.6509 46.7815 9.04743 43.5095 8.73746C41.5501 8.54372 24.1058 7.12946 24.1058 7.12946C24.4482 8.91182 25.2282 9.82237 25.7608 10.3261C26.9783 11.5079 28.8997 11.8566 28.8997 11.8566C29.3562 11.8953 42.3491 12.9996 42.3491 12.9996C42.7676 13.019 43.5476 13.1352 43.5285 14.1814C43.5285 14.317 43.4144 15.2276 42.4252 15.2276H23.6112V7.09071L18.3798 6.70324C18.3608 6.70324 18.3608 20.6134 18.3608 20.6134ZM71.4547 20.6522H90.7062C95.5381 20.3616 96.223 15.6926 96.223 15.6926C96.3942 14.472 96.261 13.4646 96.261 13.4646C96.1279 12.3603 94.587 9.02806 91.2959 8.69871C89.3556 8.50498 71.7971 7.45881 71.7971 7.45881C72.3107 9.29929 73.0146 9.86112 73.5472 10.3648C74.7647 11.566 76.5719 11.8372 76.5719 11.8372C77.0285 11.876 90.1545 12.9996 90.1545 12.9996C90.5731 13.019 91.4291 13.0578 91.4291 14.1039C91.4291 14.4139 91.2769 14.7432 91.0867 14.9176C91.0867 14.9176 90.6301 15.1695 90.1926 15.1695H71.5118L71.4547 20.6522Z" fill="#BDBDBD"/>
</svg>
