<svg width="73" height="25" viewBox="0 0 73 25" fill="none" xmlns="http://www.w3.org/2000/svg">
<path d="M13.0926 12.4852C13.0926 9.68147 11.2323 8.08884 8.59863 8.08884H6.98677V16.8845H8.55279C11.0016 16.8845 13.0926 15.5537 13.0926 12.4852ZM41.7644 15.6498L29.8899 25L19.0372 16.4557C17.4712 20.2177 13.6871 22.8307 9.32914 22.8307H0.0410156V2.13978H9.32914C14.1987 2.13978 17.7078 5.23631 19.0343 8.53543L29.8899 9.57491e-07L33.9106 3.16456L23.9615 10.9843L25.8736 12.4808L35.8197 4.6655L39.8464 7.82119L29.8988 15.6498L31.8078 17.1492L41.7644 9.31918V2.13978H48.9822V16.7914H56.1823V22.8558H41.7644V15.6498ZM65.3255 16.7943H72.5227V22.8558H58.1003V2.13978H65.3255V16.7943Z" fill="#BDBDBD"/>
</svg>
