<svg width="130" height="21" viewBox="0 0 130 21" fill="none" xmlns="http://www.w3.org/2000/svg">
<path d="M0.966797 19.7987V0.129883H9.21598C11.9988 0.159695 14.6823 0.306291 16.5458 2.80838C17.0676 3.51403 17.7882 4.81104 17.7882 6.98763C17.7882 9.72577 16.5955 11.3731 15.7756 12.1409C14.3096 13.6093 12.3467 13.7584 10.4086 13.8479H6.80583V19.7987H0.966797ZM9.04206 9.28598C10.0111 9.26113 11.1043 9.20895 11.8001 8.50081C11.9988 8.2921 12.3218 7.87219 12.3218 7.1889C12.297 6.51058 11.9988 6.08817 11.8249 5.87946C10.9801 4.96261 9.61353 5.06696 8.49542 5.06696H6.88037V9.28598H9.04206Z" fill="#BDBDBD"/>
<path d="M27.2542 19.82L27.0306 18.5106C26.2852 19.0945 24.9186 20.2375 22.4588 20.2375C22.0364 20.2375 20.1977 20.1803 18.9305 19.1243C18.3839 18.6497 17.4397 17.5068 17.4397 15.6159C17.4397 15.1687 17.5639 14.4084 18.2845 13.4617C19.3032 12.0976 20.5207 11.7274 22.0861 11.3621L24.7198 11.0342C25.018 10.9497 25.341 10.8677 25.6889 10.813C25.7634 10.7832 26.1858 10.7261 26.4094 10.5596C26.6331 10.3931 26.807 9.75205 26.807 9.44394C26.807 8.88738 26.0864 8.43268 24.9683 8.43268C23.9744 8.43268 23.5023 8.79296 23.2539 9.15572C23.1296 9.34953 23.0799 9.51601 23.0551 9.96325L18.0609 9.93343C18.2845 8.79296 18.5081 7.87362 19.3281 6.92696C20.3468 5.784 21.9618 5.06095 25.1174 5.06095C25.7137 5.06095 28.1487 4.80999 29.9377 6.00761C30.6583 6.48219 31.1304 7.04125 31.4534 7.79163C32 8.96192 31.8509 10.3782 31.8509 11.6056V15.5315C31.8261 17.9814 32 18.4261 32.4472 19.82H27.2542ZM26.7324 13.5039C26.0119 13.7549 25.2665 13.9785 24.5211 14.2295L23.9744 14.3959C23.7011 14.4506 22.8563 14.6345 22.8563 15.693C22.8563 16.1675 23.1296 17.0297 24.2229 17.0297C24.372 17.0297 25.0429 16.9651 25.3907 16.8533C26.3846 16.575 26.4591 15.929 26.7324 15.6482V13.5039Z" fill="#BDBDBD"/>
<path d="M42.2875 19.8361V12.869C42.2875 13.6989 42.5111 10.1483 41.7657 9.79792C41.5172 9.67617 41.0451 9.43515 40.4736 9.44758C39.8276 9.46 39.1071 9.77307 38.8586 10.347C38.5853 11.0477 38.4859 11.6913 38.5107 13.1498V19.841H33.1438V5.41989H38.2126L38.2871 7.09457C38.9828 6.24233 39.8028 5.1416 42.7844 5.1416C44.9709 5.1416 46.6357 5.9044 47.3066 8.11827C47.4556 8.67733 47.5302 9.21899 47.5799 10.3669V19.8361H42.2875Z" fill="#BDBDBD"/>
<path d="M72.1033 9.58638C72.0039 9.03726 71.6064 8.12787 70.2398 8.12787C69.6435 8.12787 69.1962 8.28937 68.9726 8.42851C68.8484 8.48069 68.6496 8.84097 68.6496 9.25343C68.6496 9.36276 68.749 9.69074 69.072 9.88454C69.2708 9.99636 69.7429 10.133 70.2895 10.1951L72.4015 10.7442C73.8923 11.1219 75.1843 11.3878 76.2279 12.4314C76.7497 12.9258 77.023 13.5669 77.0976 13.8278C77.346 14.5732 77.2218 15.1571 77.2218 15.4055C77.2218 17.1051 76.4019 18.1288 75.9298 18.5686C74.911 19.5028 73.296 20.2085 70.3392 20.2085C67.8794 20.2085 66.3388 19.5624 65.4195 19.0282C63.4566 17.8902 63.3572 15.7956 63.233 15.1372L68.3514 15.1198C68.4011 15.6142 68.4757 15.9845 68.8732 16.3398C69.1962 16.6429 69.5441 16.8516 70.4634 16.8516C71.5567 16.8516 72.1779 16.3249 72.2027 15.8453C72.2276 15.7882 72.2276 15.403 72.0785 15.2117C71.83 14.7993 71.1591 14.6253 70.1901 14.3769C70.1901 14.3769 67.2085 13.7358 66.9849 13.629C66.314 13.3209 63.6057 12.7121 63.6057 9.69073C63.6057 7.9912 64.4753 7.08429 64.9723 6.61717C65.8916 5.81958 67.4073 5.07915 70.1156 5.07915C70.7119 5.07915 73.2463 5.05181 75.1347 6.34386C75.6564 6.69917 76.0788 7.13895 76.4019 7.66074C76.8491 8.40118 76.9236 9.28573 76.9733 9.58638H72.1033Z" fill="#BDBDBD"/>
<path d="M90.5641 18.1856C89.6945 19.0677 87.9055 20.2255 84.9487 20.2255C84.0045 20.2255 81.3956 20.1709 79.4824 17.9098C78.6873 16.9458 77.7183 15.3456 77.7183 12.4758C77.7183 11.9788 77.7183 10.8483 78.1904 9.60845C79.2588 6.46532 82.1659 5.03165 85.222 5.05898C86.042 5.05898 88.6012 5.14097 90.4399 7.01692C91.3592 7.95365 92.527 9.66312 92.5022 12.6969C92.5022 13.4399 92.4525 16.255 90.5641 18.1856ZM86.5886 9.47925C86.1165 9.03697 85.396 8.94752 85.1475 8.94752C84.5263 8.94752 84.0791 9.30781 83.93 9.41713C83.284 9.94141 82.8119 10.739 82.8119 12.5305C82.8119 13.9368 83.1349 16.2898 85.1226 16.2898C85.6941 16.2898 86.2408 16.1407 86.5886 15.7283C87.0607 15.204 87.5577 14.2573 87.5328 12.6025C87.5328 12.5205 87.5577 10.4706 86.5886 9.47925Z" fill="#BDBDBD"/>
<path d="M108.778 5.37191H114.045V19.8602H108.778V5.37191ZM108.778 0H114.045V3.76928H108.778V0Z" fill="#BDBDBD"/>
<path d="M124.183 10.9135C123.785 9.17418 122.941 9.08722 121.996 9.08722C121.226 9.08722 120.978 9.34811 120.729 9.56428C120.058 10.1358 119.835 10.8439 119.835 12.6105C119.835 12.7447 119.76 15.1051 121.052 16.0021C121.425 16.2481 121.599 16.263 122.046 16.263C122.195 16.263 122.642 16.2779 123.04 16.0891C123.562 15.8456 124.108 15.3983 124.208 14.1734L129.301 14.1312C129.252 14.4591 129.053 15.6145 128.556 16.5661C127.289 19.0931 124.705 20.1466 122.096 20.1466C121.027 20.1466 120.282 19.9851 119.835 19.9031C117.772 19.3863 115.959 17.9452 115.164 15.8804C114.94 15.2567 114.642 14.3051 114.642 12.7273C114.642 12.0763 114.667 10.3917 115.586 8.70706C115.71 8.43623 116.133 7.75543 116.729 7.13176C118.667 5.22849 121.549 5.17383 122.245 5.17383C124.928 5.17383 126.593 6.18013 127.413 6.94045C127.662 7.18643 128.158 7.84239 128.556 8.73936C128.879 9.47235 129.053 10.1258 129.177 10.9135H124.183Z" fill="#BDBDBD"/>
<path d="M62.7363 15.6099V11.6915C62.7363 10.4665 62.7363 8.8192 62.2145 7.65139C61.8667 6.89853 61.6182 6.4811 60.8976 6.00901C59.1087 4.81139 56.4749 5.03749 55.8785 5.03749C52.723 5.03749 51.1079 5.86987 50.0892 7.01283C49.2693 7.9595 49.0953 8.88629 48.8717 10.0292H53.8659C53.8908 9.582 53.9653 9.41553 54.0647 9.21924C54.338 8.85895 54.7356 8.40426 55.7295 8.40426C56.8476 8.40426 57.5681 8.97325 57.5681 9.52982C57.5681 9.83543 57.5433 10.3349 57.3197 10.5013C57.0961 10.6703 56.5246 10.8691 56.4252 10.8964C56.1767 10.9386 55.8537 11.0132 55.4562 11.1175L52.8472 11.448C51.2819 11.8108 50.0644 12.1288 49.0456 13.4929C48.3002 14.4396 48.3002 15.3043 48.3002 15.749C48.3002 17.6424 49.1202 18.7356 49.6668 19.2102C50.934 20.2662 52.7478 20.2264 53.1951 20.2264C55.6549 20.2264 56.947 19.1456 57.7172 18.5617L57.9408 19.9283H63.3326C63.0345 18.9816 62.7115 18.4871 62.7363 15.6099ZM56.1519 16.9392C55.804 17.051 55.2077 17.0261 55.0586 17.0187C54.1641 16.9591 53.692 16.1441 53.692 15.6695C53.692 14.611 54.5368 14.4396 54.8101 14.3849L55.3816 14.2259C56.1022 13.9749 56.8476 13.7637 57.5681 13.5128L57.593 15.3539C57.3694 15.7689 57.1209 16.6609 56.1519 16.9392Z" fill="#BDBDBD"/>
<path d="M102.418 19.8068V12.795C102.418 13.6249 102.666 10.119 101.921 9.76614C101.672 9.64936 101.2 9.40586 100.654 9.41829C100.008 9.4307 99.2621 9.74378 99.0385 10.3177C98.7404 11.0184 98.5913 11.4955 98.6161 12.9515L98.5664 19.8341L93.3237 19.8118V5.39059H98.3677L98.4422 7.06528C99.1379 6.21303 99.9579 5.1123 102.964 5.1123C105.126 5.1123 106.791 6.03164 107.462 8.24551C107.611 8.80456 107.636 9.16981 107.71 10.3177V19.8118L102.418 19.8068Z" fill="#BDBDBD"/>
</svg>
