<svg width="111" height="21" viewBox="0 0 111 21" fill="none" xmlns="http://www.w3.org/2000/svg">
<path d="M37.965 1.16772H32.0352V8.88917H25.8624V1.16772H19.9326V20.5942H25.8624V12.9528H32.0352V20.5942H37.965V1.16772ZM58.5923 16.6907V1.16772H52.6625V20.5942H63.3847L64.2764 16.6907H58.5923ZM48.2786 1.16772H42.3488V20.5942H48.2786V1.16772ZM72.3181 1.16772H66.3911V20.5942H72.3181V1.16772ZM101.553 6.12579C101.553 5.06847 102.61 4.57985 104.314 4.57985C106.183 4.57985 108.214 4.98842 109.595 5.55986L109.109 1.33059C107.563 1.00484 106.183 0.761906 103.668 0.761906C98.8753 0.761906 95.626 2.65293 95.626 6.61442C95.626 13.4414 104.888 12.0611 104.888 15.2303C104.888 16.4477 103.991 17.0965 101.799 17.0965C99.8525 17.0965 96.8434 16.4477 95.0573 15.5533L95.7088 20.0255C97.495 20.677 99.9298 21 101.882 21C106.834 21 110.895 19.374 110.895 14.496C110.895 7.99749 101.553 9.21492 101.553 6.12579ZM84.8265 15.9619C90.3449 15.9619 93.8399 13.1157 93.8399 8.15761C93.8399 2.71367 90.1048 0.761906 84.0121 0.761906C81.6573 0.761906 78.8138 0.924784 76.7848 1.16772V20.5942H82.7146V15.9619H84.8265ZM87.9929 8.24042C87.9929 10.7581 86.7755 12.4669 83.6863 12.4669H82.7146V4.43905C83.0597 4.41973 83.3827 4.41973 83.6863 4.41973C86.6098 4.41973 87.9929 5.80003 87.9929 8.24042ZM8.56439 15.9619C14.0856 15.9619 17.5778 13.1157 17.5778 8.15761C17.5778 2.71367 13.8427 0.761906 7.75277 0.761906C5.3952 0.761906 2.55452 0.924784 0.522705 1.16772V20.5942H6.45252V15.9619H8.56439ZM11.7336 8.24042C11.7336 10.7581 10.5134 12.4669 7.42701 12.4669H6.45252V4.43905C6.79759 4.41973 7.12335 4.41973 7.42701 4.41973C10.3505 4.41973 11.7336 5.80003 11.7336 8.24042Z" fill="#BDBDBD"/>
</svg>
