<svg width="123" height="22" viewBox="0 0 123 22" fill="none" xmlns="http://www.w3.org/2000/svg">
<path d="M43.6899 21.4283C39.281 21.4283 35.1882 20.1061 32.4563 17.654C30.3923 15.8015 29.4006 13.2851 29.4006 10.6952C29.4006 8.13683 30.4351 5.60313 32.4561 3.76035C34.9932 1.44807 39.4726 0 43.6899 0C48.357 0 52.0924 1.17557 54.948 3.7667C56.9797 5.61046 57.962 8.13292 57.962 10.6955C57.962 13.1793 56.9196 15.8245 54.948 17.654C52.2889 20.122 48.1102 21.4283 43.6899 21.4283V18.6021C46.0301 18.6021 48.2009 17.7941 49.7169 16.2856C51.2224 14.7875 51.9238 12.9459 51.9238 10.6952C51.9238 8.53912 51.1671 6.5233 49.7169 5.09356C48.2211 3.62031 45.9986 2.7913 43.6899 2.7913C41.3742 2.7913 39.1502 3.61175 37.6532 5.09356C36.2108 6.52281 35.4522 8.5445 35.4522 10.6952C35.4522 12.8393 36.2196 14.8598 37.6532 16.2859C39.1514 17.7762 41.3676 18.6023 43.6899 18.6023V21.4286V21.4283ZM11.4647 0.0102648C9.10627 0.0102648 6.4269 0.451408 4.15031 1.46812C2.04919 2.40564 0.329346 3.9219 0.329346 6.43556C0.328369 8.69944 1.76716 10.0253 1.72805 9.98866C2.34003 10.552 3.32521 11.5113 5.90095 12.0746C7.05208 12.3264 9.51319 12.713 11.964 12.9691C14.3968 13.2257 16.791 13.4697 17.7661 13.7165C18.5409 13.9137 19.8423 14.1823 19.8423 15.6424C19.8423 17.0966 18.4712 17.5404 18.2329 17.6367C17.9949 17.7308 16.3501 18.4855 13.3933 18.4855C11.2103 18.4855 8.58594 17.829 7.62935 17.4869C6.52662 17.0944 5.36987 16.5753 4.29084 15.2572C4.02249 14.9304 3.59918 14.0318 3.59918 13.1419H0.92324V20.6401H3.8976V19.6271C3.8976 19.5117 4.04179 19.0374 4.5411 19.2629C5.16237 19.5452 6.98609 20.2713 8.8929 20.6695C10.4563 20.9965 11.4645 21.2309 13.4082 21.2309C16.5796 21.2309 18.2833 20.7142 19.461 20.3779C20.5706 20.0602 21.9417 19.4897 23.0554 18.6016C23.6586 18.1213 24.9813 16.8903 24.9813 14.6557C24.9813 12.5109 23.8302 11.1796 23.4252 10.7747C22.8736 10.2228 22.1998 9.79509 21.4976 9.4654C20.8859 9.17749 19.9205 8.83167 19.1306 8.63834C17.5975 8.26197 14.1309 7.79761 12.4731 7.62408C10.7347 7.44249 7.71905 7.19271 6.51464 6.82C6.14951 6.70685 5.40506 6.35222 5.40506 5.48802C5.40506 4.87335 5.74551 4.35229 6.41835 3.93119C7.48638 3.26202 9.6437 2.84605 11.8924 2.84605C14.551 2.83627 16.8024 3.4441 18.2346 4.08443C18.7217 4.30194 19.2917 4.61429 19.7443 4.98382C20.2551 5.40028 20.9722 6.2657 21.2315 7.4728H23.6339V0.945831H20.9514V1.70445C20.9514 1.94934 20.6984 2.26755 20.2201 2.00458C19.0196 1.37475 15.6254 0.0158861 11.4642 0.0102648H11.4647ZM70.2514 1.19634L83.3371 13.0058L83.2027 5.0547C83.1895 4.01208 82.9974 3.57681 81.8697 3.57681H79.4094V1.1983H90.598V3.57681H88.198C87.0479 3.57681 86.9753 3.94463 86.9613 5.0547L87.1642 20.2474H83.3325L68.2603 6.79556L68.2635 16.3423C68.2767 17.3801 68.3253 17.8689 69.3945 17.8689H72.0817V20.2464H61.0935V17.8691H63.6621C64.6217 17.8691 64.5835 16.9543 64.5835 16.2883V5.14512C64.5835 4.42585 64.4826 3.57852 62.9761 3.57852H60.8918V1.19634H70.2514ZM103.383 17.8645C103.488 17.8645 103.955 17.851 104.046 17.8234C104.304 17.7428 104.479 17.5585 104.56 17.3664C104.595 17.2857 104.612 16.9289 104.612 16.8514L104.614 13.0925C104.614 13.0021 104.607 12.963 104.454 12.7616C104.285 12.5417 97.5994 4.96525 97.2934 4.63164C96.9133 4.21738 96.2461 3.57705 95.2323 3.57705H92.9074V1.19756H106.029V3.57412H104.447C104.081 3.57412 103.838 3.92117 104.15 4.30683C104.15 4.30683 108.565 9.5876 108.607 9.64283C108.648 9.69904 108.683 9.71249 108.739 9.66116C108.794 9.60861 113.264 4.35522 113.3 4.31367C113.512 4.05901 113.368 3.57681 112.91 3.57681H111.287V1.19756H122.041V3.57681H119.638C118.767 3.57681 118.412 3.73811 117.757 4.47938C117.457 4.8186 110.7 12.5312 110.516 12.7401C110.42 12.8494 110.428 13.0016 110.428 13.0921V16.8505C110.428 16.9267 110.445 17.284 110.479 17.3642C110.561 17.5573 110.737 17.7415 110.995 17.8212C111.085 17.8491 111.546 17.8628 111.651 17.8628H114.108V20.2418H101.055V17.8625L103.384 17.8645H103.383Z" fill="#BDBDBD"/>
</svg>
